<mxfile host="app.diagrams.net" modified="2023-06-01T11:59:00.162Z" agent="Mozilla/5.0 (Windows NT 10.0; Win64; x64) AppleWebKit/537.36 (KHTML, like Gecko) Chrome/113.0.0.0 Safari/537.36" etag="eUFBR6SzshcR5ON_F3KQ" version="21.2.9" type="google">
  <diagram id="GBa6RKkgw355Qdo3Addc" name="Trang-1">
    <mxGraphModel grid="0" page="0" gridSize="10" guides="1" tooltips="1" connect="1" arrows="1" fold="1" pageScale="1" pageWidth="827" pageHeight="1169" math="0" shadow="0">
      <root>
        <mxCell id="0" />
        <mxCell id="1" parent="0" />
        <mxCell id="mEQ5S8OBxncR9a9ROYgm-1" value="" style="shape=table;startSize=0;container=1;collapsible=0;childLayout=tableLayout;fontFamily=Times New Roman;fontSize=16;" vertex="1" parent="1">
          <mxGeometry x="69.89" y="-640" width="840" height="40" as="geometry" />
        </mxCell>
        <mxCell id="mEQ5S8OBxncR9a9ROYgm-2" value="" style="shape=tableRow;horizontal=0;startSize=0;swimlaneHead=0;swimlaneBody=0;top=0;left=0;bottom=0;right=0;collapsible=0;dropTarget=0;fillColor=none;points=[[0,0.5],[1,0.5]];portConstraint=eastwest;fontFamily=Times New Roman;fontSize=16;" vertex="1" parent="mEQ5S8OBxncR9a9ROYgm-1">
          <mxGeometry width="840" height="40" as="geometry" />
        </mxCell>
        <mxCell id="mEQ5S8OBxncR9a9ROYgm-3" value="&lt;span id=&quot;docs-internal-guid-8b9ef94d-7fff-3c0a-7ffc-4c824965ae67&quot; style=&quot;font-size: 16px;&quot;&gt;&lt;span style=&quot;font-size: 16px; background-color: transparent; font-weight: 700; font-variant-numeric: normal; font-variant-east-asian: normal; text-decoration-line: underline; text-decoration-skip-ink: none; vertical-align: baseline;&quot;&gt;TransID&lt;/span&gt;&lt;/span&gt;" style="shape=partialRectangle;html=1;whiteSpace=wrap;connectable=0;overflow=hidden;fillColor=none;top=0;left=0;bottom=0;right=0;pointerEvents=1;fontFamily=Times New Roman;fontSize=16;" vertex="1" parent="mEQ5S8OBxncR9a9ROYgm-2">
          <mxGeometry width="120" height="40" as="geometry">
            <mxRectangle width="120" height="40" as="alternateBounds" />
          </mxGeometry>
        </mxCell>
        <mxCell id="mEQ5S8OBxncR9a9ROYgm-5" value="&lt;span id=&quot;docs-internal-guid-b838d883-7fff-8456-114e-e49e23c677de&quot; style=&quot;font-size: 16px;&quot;&gt;&lt;span style=&quot;font-size: 16px; background-color: transparent; font-variant-numeric: normal; font-variant-east-asian: normal; vertical-align: baseline;&quot;&gt;OrderDate&lt;/span&gt;&lt;/span&gt;" style="shape=partialRectangle;html=1;whiteSpace=wrap;connectable=0;overflow=hidden;fillColor=none;top=0;left=0;bottom=0;right=0;pointerEvents=1;fontFamily=Times New Roman;fontSize=16;" vertex="1" parent="mEQ5S8OBxncR9a9ROYgm-2">
          <mxGeometry x="120" width="120" height="40" as="geometry">
            <mxRectangle width="120" height="40" as="alternateBounds" />
          </mxGeometry>
        </mxCell>
        <mxCell id="mEQ5S8OBxncR9a9ROYgm-6" value="&lt;span id=&quot;docs-internal-guid-d42fefd2-7fff-9a60-ca17-dfb0ce4ee917&quot; style=&quot;font-size: 16px;&quot;&gt;&lt;span style=&quot;font-size: 16px; background-color: transparent; font-variant-numeric: normal; font-variant-east-asian: normal; vertical-align: baseline;&quot;&gt;OrderStatus&lt;/span&gt;&lt;/span&gt;" style="shape=partialRectangle;html=1;whiteSpace=wrap;connectable=0;overflow=hidden;fillColor=none;top=0;left=0;bottom=0;right=0;pointerEvents=1;fontFamily=Times New Roman;fontSize=16;" vertex="1" parent="mEQ5S8OBxncR9a9ROYgm-2">
          <mxGeometry x="240" width="120" height="40" as="geometry">
            <mxRectangle width="120" height="40" as="alternateBounds" />
          </mxGeometry>
        </mxCell>
        <mxCell id="mEQ5S8OBxncR9a9ROYgm-7" value="&lt;span id=&quot;docs-internal-guid-bc66a946-7fff-b779-a5a0-0a96105ca3fa&quot; style=&quot;font-size: 16px;&quot;&gt;&lt;span style=&quot;font-size: 16px; background-color: transparent; font-variant-numeric: normal; font-variant-east-asian: normal; vertical-align: baseline;&quot;&gt;TranType&lt;/span&gt;&lt;/span&gt;" style="shape=partialRectangle;html=1;whiteSpace=wrap;connectable=0;overflow=hidden;fillColor=none;top=0;left=0;bottom=0;right=0;pointerEvents=1;fontFamily=Times New Roman;fontSize=16;" vertex="1" parent="mEQ5S8OBxncR9a9ROYgm-2">
          <mxGeometry x="360" width="120" height="40" as="geometry">
            <mxRectangle width="120" height="40" as="alternateBounds" />
          </mxGeometry>
        </mxCell>
        <mxCell id="UuyItOIB2tCT60mz2fpE-55" value="&lt;span id=&quot;docs-internal-guid-4c7f8c5f-7fff-2a73-a3d0-940d85cca634&quot; style=&quot;font-size: 16px;&quot;&gt;&lt;span style=&quot;font-size: 16px; background-color: transparent; font-variant-numeric: normal; font-variant-east-asian: normal; vertical-align: baseline;&quot;&gt;AccountID&lt;/span&gt;&lt;/span&gt;" style="shape=partialRectangle;html=1;whiteSpace=wrap;connectable=0;overflow=hidden;fillColor=none;top=0;left=0;bottom=0;right=0;pointerEvents=1;fontFamily=Times New Roman;fontSize=16;" vertex="1" parent="mEQ5S8OBxncR9a9ROYgm-2">
          <mxGeometry x="480" width="120" height="40" as="geometry">
            <mxRectangle width="120" height="40" as="alternateBounds" />
          </mxGeometry>
        </mxCell>
        <mxCell id="UuyItOIB2tCT60mz2fpE-56" value="&lt;span id=&quot;docs-internal-guid-c4026ce5-7fff-4ad1-79e8-01660fa32ea0&quot; style=&quot;font-size: 16px;&quot;&gt;&lt;span style=&quot;font-size: 16px; background-color: transparent; font-variant-numeric: normal; font-variant-east-asian: normal; vertical-align: baseline;&quot;&gt;OrderMessage&lt;/span&gt;&lt;/span&gt;" style="shape=partialRectangle;html=1;whiteSpace=wrap;connectable=0;overflow=hidden;fillColor=none;top=0;left=0;bottom=0;right=0;pointerEvents=1;fontFamily=Times New Roman;fontSize=16;" vertex="1" parent="mEQ5S8OBxncR9a9ROYgm-2">
          <mxGeometry x="600" width="120" height="40" as="geometry">
            <mxRectangle width="120" height="40" as="alternateBounds" />
          </mxGeometry>
        </mxCell>
        <mxCell id="UuyItOIB2tCT60mz2fpE-57" value="&lt;span id=&quot;docs-internal-guid-eb32de2a-7fff-677f-c4d1-1475ce8cf5b1&quot; style=&quot;font-size: 16px;&quot;&gt;&lt;span style=&quot;font-size: 16px; background-color: transparent; font-variant-numeric: normal; font-variant-east-asian: normal; vertical-align: baseline;&quot;&gt;CooperateID&lt;/span&gt;&lt;/span&gt;" style="shape=partialRectangle;html=1;whiteSpace=wrap;connectable=0;overflow=hidden;fillColor=none;top=0;left=0;bottom=0;right=0;pointerEvents=1;fontFamily=Times New Roman;fontSize=16;" vertex="1" parent="mEQ5S8OBxncR9a9ROYgm-2">
          <mxGeometry x="720" width="120" height="40" as="geometry">
            <mxRectangle width="120" height="40" as="alternateBounds" />
          </mxGeometry>
        </mxCell>
        <mxCell id="Ft31pjSwO6Qs9RVCdsp_-19" value="" style="endArrow=classic;html=1;rounded=0;fontFamily=Times New Roman;fontSize=16;edgeStyle=orthogonalEdgeStyle;exitX=0.063;exitY=0.017;exitDx=0;exitDy=0;exitPerimeter=0;" edge="1" parent="mEQ5S8OBxncR9a9ROYgm-1" source="mEQ5S8OBxncR9a9ROYgm-2">
          <mxGeometry width="50" height="50" relative="1" as="geometry">
            <mxPoint x="70" y="10" as="sourcePoint" />
            <mxPoint x="770" as="targetPoint" />
            <Array as="points">
              <mxPoint x="70" y="1" />
              <mxPoint x="60" />
              <mxPoint x="60" y="-30" />
              <mxPoint x="539" y="-30" />
            </Array>
          </mxGeometry>
        </mxCell>
        <mxCell id="mEQ5S8OBxncR9a9ROYgm-8" value="" style="shape=table;startSize=0;container=1;collapsible=0;childLayout=tableLayout;fontFamily=Times New Roman;fontSize=16;" vertex="1" parent="1">
          <mxGeometry x="1179.93" y="-570" width="720" height="40" as="geometry" />
        </mxCell>
        <mxCell id="mEQ5S8OBxncR9a9ROYgm-9" value="" style="shape=tableRow;horizontal=0;startSize=0;swimlaneHead=0;swimlaneBody=0;top=0;left=0;bottom=0;right=0;collapsible=0;dropTarget=0;fillColor=none;points=[[0,0.5],[1,0.5]];portConstraint=eastwest;fontFamily=Times New Roman;fontSize=16;" vertex="1" parent="mEQ5S8OBxncR9a9ROYgm-8">
          <mxGeometry width="720" height="40" as="geometry" />
        </mxCell>
        <mxCell id="mEQ5S8OBxncR9a9ROYgm-10" value="LocationID" style="shape=partialRectangle;html=1;whiteSpace=wrap;connectable=0;overflow=hidden;fillColor=none;top=0;left=0;bottom=0;right=0;pointerEvents=1;fontStyle=5;fontFamily=Times New Roman;fontSize=16;" vertex="1" parent="mEQ5S8OBxncR9a9ROYgm-9">
          <mxGeometry width="120" height="40" as="geometry">
            <mxRectangle width="120" height="40" as="alternateBounds" />
          </mxGeometry>
        </mxCell>
        <mxCell id="mEQ5S8OBxncR9a9ROYgm-11" value="HomeStreet" style="shape=partialRectangle;html=1;whiteSpace=wrap;connectable=0;overflow=hidden;fillColor=none;top=0;left=0;bottom=0;right=0;pointerEvents=1;fontFamily=Times New Roman;fontSize=16;" vertex="1" parent="mEQ5S8OBxncR9a9ROYgm-9">
          <mxGeometry x="120" width="120" height="40" as="geometry">
            <mxRectangle width="120" height="40" as="alternateBounds" />
          </mxGeometry>
        </mxCell>
        <mxCell id="mEQ5S8OBxncR9a9ROYgm-12" value="CityProvince" style="shape=partialRectangle;html=1;whiteSpace=wrap;connectable=0;overflow=hidden;fillColor=none;top=0;left=0;bottom=0;right=0;pointerEvents=1;fontFamily=Times New Roman;fontSize=16;" vertex="1" parent="mEQ5S8OBxncR9a9ROYgm-9">
          <mxGeometry x="240" width="120" height="40" as="geometry">
            <mxRectangle width="120" height="40" as="alternateBounds" />
          </mxGeometry>
        </mxCell>
        <mxCell id="mEQ5S8OBxncR9a9ROYgm-13" value="DistrictTown" style="shape=partialRectangle;html=1;whiteSpace=wrap;connectable=0;overflow=hidden;fillColor=none;top=0;left=0;bottom=0;right=0;pointerEvents=1;fontFamily=Times New Roman;fontSize=16;" vertex="1" parent="mEQ5S8OBxncR9a9ROYgm-9">
          <mxGeometry x="360" width="120" height="40" as="geometry">
            <mxRectangle width="120" height="40" as="alternateBounds" />
          </mxGeometry>
        </mxCell>
        <mxCell id="mEQ5S8OBxncR9a9ROYgm-14" value="CommuneWard" style="shape=partialRectangle;html=1;whiteSpace=wrap;connectable=0;overflow=hidden;fillColor=none;top=0;left=0;bottom=0;right=0;pointerEvents=1;fontFamily=Times New Roman;fontSize=16;" vertex="1" parent="mEQ5S8OBxncR9a9ROYgm-9">
          <mxGeometry x="480" width="120" height="40" as="geometry">
            <mxRectangle width="120" height="40" as="alternateBounds" />
          </mxGeometry>
        </mxCell>
        <mxCell id="5ntVKc6Pq-QmaucN38MB-48" value="ZipCode" style="shape=partialRectangle;html=1;whiteSpace=wrap;connectable=0;overflow=hidden;fillColor=none;top=0;left=0;bottom=0;right=0;pointerEvents=1;fontFamily=Times New Roman;fontSize=16;" vertex="1" parent="mEQ5S8OBxncR9a9ROYgm-9">
          <mxGeometry x="600" width="120" height="40" as="geometry">
            <mxRectangle width="120" height="40" as="alternateBounds" />
          </mxGeometry>
        </mxCell>
        <mxCell id="mEQ5S8OBxncR9a9ROYgm-15" value="" style="shape=table;startSize=0;container=1;collapsible=0;childLayout=tableLayout;fontFamily=Times New Roman;fontSize=16;" vertex="1" parent="1">
          <mxGeometry x="1179.93" y="-826" width="600" height="40" as="geometry" />
        </mxCell>
        <mxCell id="mEQ5S8OBxncR9a9ROYgm-16" value="" style="shape=tableRow;horizontal=0;startSize=0;swimlaneHead=0;swimlaneBody=0;top=0;left=0;bottom=0;right=0;collapsible=0;dropTarget=0;fillColor=none;points=[[0,0.5],[1,0.5]];portConstraint=eastwest;fontFamily=Times New Roman;fontSize=16;" vertex="1" parent="mEQ5S8OBxncR9a9ROYgm-15">
          <mxGeometry width="600" height="40" as="geometry" />
        </mxCell>
        <mxCell id="mEQ5S8OBxncR9a9ROYgm-17" value="AccountID" style="shape=partialRectangle;html=1;whiteSpace=wrap;connectable=0;overflow=hidden;fillColor=none;top=0;left=0;bottom=0;right=0;pointerEvents=1;fontStyle=5;fontFamily=Times New Roman;fontSize=16;" vertex="1" parent="mEQ5S8OBxncR9a9ROYgm-16">
          <mxGeometry width="120" height="40" as="geometry">
            <mxRectangle width="120" height="40" as="alternateBounds" />
          </mxGeometry>
        </mxCell>
        <mxCell id="mEQ5S8OBxncR9a9ROYgm-18" value="Username" style="shape=partialRectangle;html=1;whiteSpace=wrap;connectable=0;overflow=hidden;fillColor=none;top=0;left=0;bottom=0;right=0;pointerEvents=1;fontFamily=Times New Roman;fontSize=16;" vertex="1" parent="mEQ5S8OBxncR9a9ROYgm-16">
          <mxGeometry x="120" width="120" height="40" as="geometry">
            <mxRectangle width="120" height="40" as="alternateBounds" />
          </mxGeometry>
        </mxCell>
        <mxCell id="mEQ5S8OBxncR9a9ROYgm-19" value="BankCardNo" style="shape=partialRectangle;html=1;whiteSpace=wrap;connectable=0;overflow=hidden;fillColor=none;top=0;left=0;bottom=0;right=0;pointerEvents=1;fontFamily=Times New Roman;fontSize=16;" vertex="1" parent="mEQ5S8OBxncR9a9ROYgm-16">
          <mxGeometry x="240" width="120" height="40" as="geometry">
            <mxRectangle width="120" height="40" as="alternateBounds" />
          </mxGeometry>
        </mxCell>
        <mxCell id="mEQ5S8OBxncR9a9ROYgm-20" value="WalletMoneyDetail" style="shape=partialRectangle;html=1;whiteSpace=wrap;connectable=0;overflow=hidden;fillColor=none;top=0;left=0;bottom=0;right=0;pointerEvents=1;fontFamily=Times New Roman;fontSize=16;" vertex="1" parent="mEQ5S8OBxncR9a9ROYgm-16">
          <mxGeometry x="360" width="120" height="40" as="geometry">
            <mxRectangle width="120" height="40" as="alternateBounds" />
          </mxGeometry>
        </mxCell>
        <mxCell id="mEQ5S8OBxncR9a9ROYgm-21" value="&lt;span style=&quot;font-size: 16px;&quot;&gt;SecurityID&lt;/span&gt;" style="shape=partialRectangle;html=1;whiteSpace=wrap;connectable=0;overflow=hidden;fillColor=none;top=0;left=0;bottom=0;right=0;pointerEvents=1;fontFamily=Times New Roman;fontSize=16;fontStyle=0" vertex="1" parent="mEQ5S8OBxncR9a9ROYgm-16">
          <mxGeometry x="480" width="120" height="40" as="geometry">
            <mxRectangle width="120" height="40" as="alternateBounds" />
          </mxGeometry>
        </mxCell>
        <mxCell id="5ntVKc6Pq-QmaucN38MB-8" value="" style="shape=table;startSize=0;container=1;collapsible=0;childLayout=tableLayout;fontFamily=Times New Roman;fontSize=16;" vertex="1" parent="1">
          <mxGeometry x="1180" y="-1090" width="360" height="40" as="geometry" />
        </mxCell>
        <mxCell id="5ntVKc6Pq-QmaucN38MB-9" value="" style="shape=tableRow;horizontal=0;startSize=0;swimlaneHead=0;swimlaneBody=0;top=0;left=0;bottom=0;right=0;collapsible=0;dropTarget=0;fillColor=none;points=[[0,0.5],[1,0.5]];portConstraint=eastwest;fontFamily=Times New Roman;fontSize=16;" vertex="1" parent="5ntVKc6Pq-QmaucN38MB-8">
          <mxGeometry width="360" height="40" as="geometry" />
        </mxCell>
        <mxCell id="5ntVKc6Pq-QmaucN38MB-10" value="&lt;span id=&quot;docs-internal-guid-46b42b69-7fff-0c8d-42f5-c1d73e7785b2&quot; style=&quot;font-size: 16px;&quot;&gt;&lt;span style=&quot;font-size: 16px; background-color: transparent; font-variant-numeric: normal; font-variant-east-asian: normal; vertical-align: baseline;&quot;&gt;&lt;b&gt;&lt;u&gt;AccountID&lt;/u&gt;&lt;/b&gt;&lt;/span&gt;&lt;/span&gt;" style="shape=partialRectangle;html=1;whiteSpace=wrap;connectable=0;overflow=hidden;fillColor=none;top=0;left=0;bottom=0;right=0;pointerEvents=1;fontFamily=Times New Roman;fontSize=16;" vertex="1" parent="5ntVKc6Pq-QmaucN38MB-9">
          <mxGeometry width="120" height="40" as="geometry">
            <mxRectangle width="120" height="40" as="alternateBounds" />
          </mxGeometry>
        </mxCell>
        <mxCell id="5ntVKc6Pq-QmaucN38MB-11" value="&lt;span id=&quot;docs-internal-guid-2f85cd64-7fff-3050-5969-75ea485e8dc3&quot; style=&quot;font-size: 16px;&quot;&gt;&lt;span style=&quot;font-size: 16px; background-color: transparent; font-variant-numeric: normal; font-variant-east-asian: normal; vertical-align: baseline;&quot;&gt;LuckyWallet&lt;br style=&quot;font-size: 16px;&quot;&gt;MoneyDetail&lt;/span&gt;&lt;/span&gt;" style="shape=partialRectangle;html=1;whiteSpace=wrap;connectable=0;overflow=hidden;fillColor=none;top=0;left=0;bottom=0;right=0;pointerEvents=1;fontFamily=Times New Roman;fontSize=16;" vertex="1" parent="5ntVKc6Pq-QmaucN38MB-9">
          <mxGeometry x="120" width="120" height="40" as="geometry">
            <mxRectangle width="120" height="40" as="alternateBounds" />
          </mxGeometry>
        </mxCell>
        <mxCell id="5ntVKc6Pq-QmaucN38MB-12" value="&lt;span id=&quot;docs-internal-guid-718e3790-7fff-7f5d-ef56-6f754ed470e7&quot; style=&quot;font-size: 16px;&quot;&gt;&lt;span style=&quot;font-size: 16px; background-color: transparent; font-variant-numeric: normal; font-variant-east-asian: normal; vertical-align: baseline;&quot;&gt;InterestRate&lt;/span&gt;&lt;/span&gt;" style="shape=partialRectangle;html=1;whiteSpace=wrap;connectable=0;overflow=hidden;fillColor=none;top=0;left=0;bottom=0;right=0;pointerEvents=1;fontFamily=Times New Roman;fontSize=16;" vertex="1" parent="5ntVKc6Pq-QmaucN38MB-9">
          <mxGeometry x="240" width="120" height="40" as="geometry">
            <mxRectangle width="120" height="40" as="alternateBounds" />
          </mxGeometry>
        </mxCell>
        <mxCell id="5ntVKc6Pq-QmaucN38MB-15" value="" style="shape=table;startSize=0;container=1;collapsible=0;childLayout=tableLayout;fontFamily=Times New Roman;fontSize=16;" vertex="1" parent="1">
          <mxGeometry x="1190" y="-110" width="360" height="40" as="geometry" />
        </mxCell>
        <mxCell id="5ntVKc6Pq-QmaucN38MB-16" value="" style="shape=tableRow;horizontal=0;startSize=0;swimlaneHead=0;swimlaneBody=0;top=0;left=0;bottom=0;right=0;collapsible=0;dropTarget=0;fillColor=none;points=[[0,0.5],[1,0.5]];portConstraint=eastwest;fontFamily=Times New Roman;fontSize=16;" vertex="1" parent="5ntVKc6Pq-QmaucN38MB-15">
          <mxGeometry width="360" height="40" as="geometry" />
        </mxCell>
        <mxCell id="5ntVKc6Pq-QmaucN38MB-17" value="&lt;span id=&quot;docs-internal-guid-d405e0c4-7fff-6b31-aa62-4cbe2804352e&quot; style=&quot;font-size: 16px;&quot;&gt;&lt;span style=&quot;font-size: 16px; background-color: transparent; font-weight: 700; font-variant-numeric: normal; font-variant-east-asian: normal; text-decoration-line: underline; text-decoration-skip-ink: none; vertical-align: baseline;&quot;&gt;BankCardNo&lt;/span&gt;&lt;/span&gt;" style="shape=partialRectangle;html=1;whiteSpace=wrap;connectable=0;overflow=hidden;fillColor=none;top=0;left=0;bottom=0;right=0;pointerEvents=1;fontFamily=Times New Roman;fontSize=16;" vertex="1" parent="5ntVKc6Pq-QmaucN38MB-16">
          <mxGeometry width="120" height="40" as="geometry">
            <mxRectangle width="120" height="40" as="alternateBounds" />
          </mxGeometry>
        </mxCell>
        <mxCell id="5ntVKc6Pq-QmaucN38MB-18" value="&lt;span id=&quot;docs-internal-guid-901f2ef6-7fff-202a-9f2d-c2cff0a5cb16&quot; style=&quot;font-size: 16px;&quot;&gt;&lt;span style=&quot;font-size: 16px; background-color: transparent; font-variant-numeric: normal; font-variant-east-asian: normal; vertical-align: baseline;&quot;&gt;BankID&lt;/span&gt;&lt;/span&gt;" style="shape=partialRectangle;html=1;whiteSpace=wrap;connectable=0;overflow=hidden;fillColor=none;top=0;left=0;bottom=0;right=0;pointerEvents=1;fontFamily=Times New Roman;fontSize=16;" vertex="1" parent="5ntVKc6Pq-QmaucN38MB-16">
          <mxGeometry x="120" width="120" height="40" as="geometry">
            <mxRectangle width="120" height="40" as="alternateBounds" />
          </mxGeometry>
        </mxCell>
        <mxCell id="5ntVKc6Pq-QmaucN38MB-19" value="&lt;span id=&quot;docs-internal-guid-100b5137-7fff-4c49-d613-b101d366907c&quot; style=&quot;font-size: 16px;&quot;&gt;&lt;span style=&quot;font-size: 16px; background-color: transparent; font-variant-numeric: normal; font-variant-east-asian: normal; vertical-align: baseline;&quot;&gt;BankMoney&lt;br style=&quot;font-size: 16px;&quot;&gt;Detail&lt;/span&gt;&lt;/span&gt;" style="shape=partialRectangle;html=1;whiteSpace=wrap;connectable=0;overflow=hidden;fillColor=none;top=0;left=0;bottom=0;right=0;pointerEvents=1;fontFamily=Times New Roman;fontSize=16;" vertex="1" parent="5ntVKc6Pq-QmaucN38MB-16">
          <mxGeometry x="240" width="120" height="40" as="geometry">
            <mxRectangle width="120" height="40" as="alternateBounds" />
          </mxGeometry>
        </mxCell>
        <mxCell id="mEQ5S8OBxncR9a9ROYgm-29" value="" style="shape=table;startSize=0;container=1;collapsible=0;childLayout=tableLayout;fontFamily=Times New Roman;fontSize=16;" vertex="1" parent="1">
          <mxGeometry x="1180" y="-430" width="600" height="40" as="geometry" />
        </mxCell>
        <mxCell id="mEQ5S8OBxncR9a9ROYgm-30" value="" style="shape=tableRow;horizontal=0;startSize=0;swimlaneHead=0;swimlaneBody=0;top=0;left=0;bottom=0;right=0;collapsible=0;dropTarget=0;fillColor=none;points=[[0,0.5],[1,0.5]];portConstraint=eastwest;fontFamily=Times New Roman;fontSize=16;" vertex="1" parent="mEQ5S8OBxncR9a9ROYgm-29">
          <mxGeometry width="600" height="40" as="geometry" />
        </mxCell>
        <mxCell id="mEQ5S8OBxncR9a9ROYgm-31" value="&lt;span id=&quot;docs-internal-guid-33efa37d-7fff-bc92-84f5-44f482b1e291&quot; style=&quot;font-size: 16px;&quot;&gt;&lt;span style=&quot;font-size: 16px; background-color: transparent; font-weight: 700; font-variant-numeric: normal; font-variant-east-asian: normal; text-decoration-line: underline; text-decoration-skip-ink: none; vertical-align: baseline;&quot;&gt;CompanyID&lt;/span&gt;&lt;/span&gt;" style="shape=partialRectangle;html=1;whiteSpace=wrap;connectable=0;overflow=hidden;fillColor=none;top=0;left=0;bottom=0;right=0;pointerEvents=1;fontFamily=Times New Roman;fontSize=16;" vertex="1" parent="mEQ5S8OBxncR9a9ROYgm-30">
          <mxGeometry width="120" height="40" as="geometry">
            <mxRectangle width="120" height="40" as="alternateBounds" />
          </mxGeometry>
        </mxCell>
        <mxCell id="mEQ5S8OBxncR9a9ROYgm-32" value="&lt;span id=&quot;docs-internal-guid-71f778ed-7fff-0dff-db94-6ceb68aefe42&quot; style=&quot;font-size: 16px;&quot;&gt;&lt;span style=&quot;font-size: 16px; background-color: transparent; font-variant-numeric: normal; font-variant-east-asian: normal; vertical-align: baseline;&quot;&gt;CompanyName&lt;/span&gt;&lt;/span&gt;" style="shape=partialRectangle;html=1;whiteSpace=wrap;connectable=0;overflow=hidden;fillColor=none;top=0;left=0;bottom=0;right=0;pointerEvents=1;fontFamily=Times New Roman;fontSize=16;" vertex="1" parent="mEQ5S8OBxncR9a9ROYgm-30">
          <mxGeometry x="120" width="120" height="40" as="geometry">
            <mxRectangle width="120" height="40" as="alternateBounds" />
          </mxGeometry>
        </mxCell>
        <mxCell id="mEQ5S8OBxncR9a9ROYgm-33" value="&lt;span id=&quot;docs-internal-guid-8da42270-7fff-4ecf-411c-0e323c65497a&quot; style=&quot;font-size: 16px;&quot;&gt;&lt;span style=&quot;font-size: 16px; background-color: transparent; font-variant-numeric: normal; font-variant-east-asian: normal; vertical-align: baseline;&quot;&gt;Categories&lt;/span&gt;&lt;/span&gt;" style="shape=partialRectangle;html=1;whiteSpace=wrap;connectable=0;overflow=hidden;fillColor=none;top=0;left=0;bottom=0;right=0;pointerEvents=1;fontFamily=Times New Roman;fontSize=16;" vertex="1" parent="mEQ5S8OBxncR9a9ROYgm-30">
          <mxGeometry x="240" width="120" height="40" as="geometry">
            <mxRectangle width="120" height="40" as="alternateBounds" />
          </mxGeometry>
        </mxCell>
        <mxCell id="mEQ5S8OBxncR9a9ROYgm-34" value="&lt;span id=&quot;docs-internal-guid-c0b060fe-7fff-4c96-67aa-83deee65de85&quot; style=&quot;font-size: 16px;&quot;&gt;&lt;span style=&quot;font-size: 16px; background-color: transparent; font-variant-numeric: normal; font-variant-east-asian: normal; vertical-align: baseline;&quot;&gt;LocationID&lt;/span&gt;&lt;/span&gt;" style="shape=partialRectangle;html=1;whiteSpace=wrap;connectable=0;overflow=hidden;fillColor=none;top=0;left=0;bottom=0;right=0;pointerEvents=1;fontFamily=Times New Roman;fontSize=16;" vertex="1" parent="mEQ5S8OBxncR9a9ROYgm-30">
          <mxGeometry x="360" width="120" height="40" as="geometry">
            <mxRectangle width="120" height="40" as="alternateBounds" />
          </mxGeometry>
        </mxCell>
        <mxCell id="mEQ5S8OBxncR9a9ROYgm-119" value="CooperateID" style="shape=partialRectangle;html=1;whiteSpace=wrap;connectable=0;overflow=hidden;fillColor=none;top=0;left=0;bottom=0;right=0;pointerEvents=1;fontFamily=Times New Roman;fontSize=16;" vertex="1" parent="mEQ5S8OBxncR9a9ROYgm-30">
          <mxGeometry x="480" width="120" height="40" as="geometry">
            <mxRectangle width="120" height="40" as="alternateBounds" />
          </mxGeometry>
        </mxCell>
        <mxCell id="5ntVKc6Pq-QmaucN38MB-29" value="" style="shape=table;startSize=0;container=1;collapsible=0;childLayout=tableLayout;fontFamily=Times New Roman;fontSize=16;" vertex="1" parent="1">
          <mxGeometry x="1180" y="-970" width="480" height="40" as="geometry" />
        </mxCell>
        <mxCell id="5ntVKc6Pq-QmaucN38MB-30" value="" style="shape=tableRow;horizontal=0;startSize=0;swimlaneHead=0;swimlaneBody=0;top=0;left=0;bottom=0;right=0;collapsible=0;dropTarget=0;fillColor=none;points=[[0,0.5],[1,0.5]];portConstraint=eastwest;fontFamily=Times New Roman;fontSize=16;" vertex="1" parent="5ntVKc6Pq-QmaucN38MB-29">
          <mxGeometry width="480" height="40" as="geometry" />
        </mxCell>
        <mxCell id="5ntVKc6Pq-QmaucN38MB-31" value="&lt;span id=&quot;docs-internal-guid-f349bec9-7fff-478e-a9cb-c159eb9cbaf8&quot; style=&quot;font-size: 16px;&quot;&gt;&lt;span style=&quot;font-size: 16px; background-color: transparent; font-weight: 700; font-variant-numeric: normal; font-variant-east-asian: normal; text-decoration-line: underline; text-decoration-skip-ink: none; vertical-align: baseline;&quot;&gt;SecurityID&lt;/span&gt;&lt;/span&gt;" style="shape=partialRectangle;html=1;whiteSpace=wrap;connectable=0;overflow=hidden;fillColor=none;top=0;left=0;bottom=0;right=0;pointerEvents=1;fontFamily=Times New Roman;fontSize=16;" vertex="1" parent="5ntVKc6Pq-QmaucN38MB-30">
          <mxGeometry width="120" height="40" as="geometry">
            <mxRectangle width="120" height="40" as="alternateBounds" />
          </mxGeometry>
        </mxCell>
        <mxCell id="5ntVKc6Pq-QmaucN38MB-32" value="&lt;span id=&quot;docs-internal-guid-25a12387-7fff-7972-faf0-9ef727660e6a&quot; style=&quot;font-size: 16px;&quot;&gt;&lt;span style=&quot;font-size: 16px; font-variant-numeric: normal; font-variant-east-asian: normal; vertical-align: baseline;&quot;&gt;Fingerprint&lt;/span&gt;&lt;/span&gt;" style="shape=partialRectangle;html=1;whiteSpace=wrap;connectable=0;overflow=hidden;fillColor=none;top=0;left=0;bottom=0;right=0;pointerEvents=1;fontFamily=Times New Roman;fontSize=16;" vertex="1" parent="5ntVKc6Pq-QmaucN38MB-30">
          <mxGeometry x="120" width="120" height="40" as="geometry">
            <mxRectangle width="120" height="40" as="alternateBounds" />
          </mxGeometry>
        </mxCell>
        <mxCell id="5ntVKc6Pq-QmaucN38MB-33" value="&lt;span id=&quot;docs-internal-guid-4ff1731f-7fff-da3e-7dde-a8e0bb48d0e5&quot; style=&quot;font-size: 16px;&quot;&gt;&lt;span style=&quot;font-size: 16px; background-color: transparent; font-variant-numeric: normal; font-variant-east-asian: normal; vertical-align: baseline;&quot;&gt;PinCode&lt;/span&gt;&lt;/span&gt;" style="shape=partialRectangle;html=1;whiteSpace=wrap;connectable=0;overflow=hidden;fillColor=none;top=0;left=0;bottom=0;right=0;pointerEvents=1;fontFamily=Times New Roman;fontSize=16;" vertex="1" parent="5ntVKc6Pq-QmaucN38MB-30">
          <mxGeometry x="240" width="120" height="40" as="geometry">
            <mxRectangle width="120" height="40" as="alternateBounds" />
          </mxGeometry>
        </mxCell>
        <mxCell id="5ntVKc6Pq-QmaucN38MB-34" value="&lt;span id=&quot;docs-internal-guid-f97da4c9-7fff-fb3e-3192-7ace4f369f49&quot; style=&quot;font-size: 16px;&quot;&gt;&lt;span style=&quot;font-size: 16px; background-color: transparent; font-variant-numeric: normal; font-variant-east-asian: normal; vertical-align: baseline;&quot;&gt;Password&lt;/span&gt;&lt;/span&gt;" style="shape=partialRectangle;html=1;whiteSpace=wrap;connectable=0;overflow=hidden;fillColor=none;top=0;left=0;bottom=0;right=0;pointerEvents=1;fontFamily=Times New Roman;fontSize=16;" vertex="1" parent="5ntVKc6Pq-QmaucN38MB-30">
          <mxGeometry x="360" width="120" height="40" as="geometry">
            <mxRectangle width="120" height="40" as="alternateBounds" />
          </mxGeometry>
        </mxCell>
        <mxCell id="mEQ5S8OBxncR9a9ROYgm-43" value="" style="shape=table;startSize=0;container=1;collapsible=0;childLayout=tableLayout;fontFamily=Times New Roman;fontSize=16;" vertex="1" parent="1">
          <mxGeometry x="1190" y="-310" width="360" height="40" as="geometry" />
        </mxCell>
        <mxCell id="mEQ5S8OBxncR9a9ROYgm-44" value="" style="shape=tableRow;horizontal=0;startSize=0;swimlaneHead=0;swimlaneBody=0;top=0;left=0;bottom=0;right=0;collapsible=0;dropTarget=0;fillColor=none;points=[[0,0.5],[1,0.5]];portConstraint=eastwest;fontFamily=Times New Roman;fontSize=16;" vertex="1" parent="mEQ5S8OBxncR9a9ROYgm-43">
          <mxGeometry width="360" height="40" as="geometry" />
        </mxCell>
        <mxCell id="mEQ5S8OBxncR9a9ROYgm-45" value="&lt;span id=&quot;docs-internal-guid-d9640932-7fff-f9fb-9adc-c2b42faafbb6&quot; style=&quot;font-size: 16px;&quot;&gt;&lt;span style=&quot;font-size: 16px; background-color: transparent; font-weight: 700; font-variant-numeric: normal; font-variant-east-asian: normal; text-decoration-line: underline; text-decoration-skip-ink: none; vertical-align: baseline;&quot;&gt;CooperateID&lt;/span&gt;&lt;/span&gt;" style="shape=partialRectangle;html=1;whiteSpace=wrap;connectable=0;overflow=hidden;fillColor=none;top=0;left=0;bottom=0;right=0;pointerEvents=1;fontFamily=Times New Roman;fontSize=16;" vertex="1" parent="mEQ5S8OBxncR9a9ROYgm-44">
          <mxGeometry width="120" height="40" as="geometry">
            <mxRectangle width="120" height="40" as="alternateBounds" />
          </mxGeometry>
        </mxCell>
        <mxCell id="mEQ5S8OBxncR9a9ROYgm-46" value="&lt;span id=&quot;docs-internal-guid-32145718-7fff-372e-cd61-c4fb5a7c0b31&quot; style=&quot;font-size: 16px;&quot;&gt;&lt;span style=&quot;font-size: 16px; background-color: transparent; font-variant-numeric: normal; font-variant-east-asian: normal; vertical-align: baseline;&quot;&gt;CooperateType&lt;/span&gt;&lt;/span&gt;" style="shape=partialRectangle;html=1;whiteSpace=wrap;connectable=0;overflow=hidden;fillColor=none;top=0;left=0;bottom=0;right=0;pointerEvents=1;fontFamily=Times New Roman;fontSize=16;" vertex="1" parent="mEQ5S8OBxncR9a9ROYgm-44">
          <mxGeometry x="120" width="120" height="40" as="geometry">
            <mxRectangle width="120" height="40" as="alternateBounds" />
          </mxGeometry>
        </mxCell>
        <mxCell id="mEQ5S8OBxncR9a9ROYgm-47" value="&lt;span id=&quot;docs-internal-guid-7aab8932-7fff-590c-df25-26f7ef531ad1&quot; style=&quot;font-size: 16px;&quot;&gt;&lt;span style=&quot;font-size: 16px; background-color: transparent; font-variant-numeric: normal; font-variant-east-asian: normal; vertical-align: baseline;&quot;&gt;Commision&lt;/span&gt;&lt;/span&gt;" style="shape=partialRectangle;html=1;whiteSpace=wrap;connectable=0;overflow=hidden;fillColor=none;top=0;left=0;bottom=0;right=0;pointerEvents=1;fontFamily=Times New Roman;fontSize=16;" vertex="1" parent="mEQ5S8OBxncR9a9ROYgm-44">
          <mxGeometry x="240" width="120" height="40" as="geometry">
            <mxRectangle width="120" height="40" as="alternateBounds" />
          </mxGeometry>
        </mxCell>
        <mxCell id="5ntVKc6Pq-QmaucN38MB-37" value="" style="shape=table;startSize=0;container=1;collapsible=0;childLayout=tableLayout;fontStyle=4;fontFamily=Times New Roman;fontSize=16;" vertex="1" parent="1">
          <mxGeometry x="60" y="-870" width="960" height="40" as="geometry" />
        </mxCell>
        <mxCell id="5ntVKc6Pq-QmaucN38MB-38" value="" style="shape=tableRow;horizontal=0;startSize=0;swimlaneHead=0;swimlaneBody=0;top=0;left=0;bottom=0;right=0;collapsible=0;dropTarget=0;fillColor=none;points=[[0,0.5],[1,0.5]];portConstraint=eastwest;fontFamily=Times New Roman;fontSize=16;" vertex="1" parent="5ntVKc6Pq-QmaucN38MB-37">
          <mxGeometry width="960" height="40" as="geometry" />
        </mxCell>
        <mxCell id="5ntVKc6Pq-QmaucN38MB-39" value="CustomerID&lt;br style=&quot;font-size: 16px;&quot;&gt;" style="shape=partialRectangle;html=1;whiteSpace=wrap;connectable=0;overflow=hidden;fillColor=none;top=0;left=0;bottom=0;right=0;pointerEvents=1;fontStyle=5;fontFamily=Times New Roman;fontSize=16;" vertex="1" parent="5ntVKc6Pq-QmaucN38MB-38">
          <mxGeometry width="120" height="40" as="geometry">
            <mxRectangle width="120" height="40" as="alternateBounds" />
          </mxGeometry>
        </mxCell>
        <mxCell id="5ntVKc6Pq-QmaucN38MB-40" value="FirstName" style="shape=partialRectangle;html=1;whiteSpace=wrap;connectable=0;overflow=hidden;fillColor=none;top=0;left=0;bottom=0;right=0;pointerEvents=1;fontFamily=Times New Roman;fontSize=16;" vertex="1" parent="5ntVKc6Pq-QmaucN38MB-38">
          <mxGeometry x="120" width="120" height="40" as="geometry">
            <mxRectangle width="120" height="40" as="alternateBounds" />
          </mxGeometry>
        </mxCell>
        <mxCell id="5ntVKc6Pq-QmaucN38MB-41" value="LastName" style="shape=partialRectangle;html=1;whiteSpace=wrap;connectable=0;overflow=hidden;fillColor=none;top=0;left=0;bottom=0;right=0;pointerEvents=1;fontFamily=Times New Roman;fontSize=16;" vertex="1" parent="5ntVKc6Pq-QmaucN38MB-38">
          <mxGeometry x="240" width="120" height="40" as="geometry">
            <mxRectangle width="120" height="40" as="alternateBounds" />
          </mxGeometry>
        </mxCell>
        <mxCell id="5ntVKc6Pq-QmaucN38MB-42" value="Gender" style="shape=partialRectangle;html=1;whiteSpace=wrap;connectable=0;overflow=hidden;fillColor=none;top=0;left=0;bottom=0;right=0;pointerEvents=1;fontFamily=Times New Roman;fontSize=16;" vertex="1" parent="5ntVKc6Pq-QmaucN38MB-38">
          <mxGeometry x="360" width="120" height="40" as="geometry">
            <mxRectangle width="120" height="40" as="alternateBounds" />
          </mxGeometry>
        </mxCell>
        <mxCell id="5ntVKc6Pq-QmaucN38MB-43" value="DOB" style="shape=partialRectangle;html=1;whiteSpace=wrap;connectable=0;overflow=hidden;fillColor=none;top=0;left=0;bottom=0;right=0;pointerEvents=1;fontFamily=Times New Roman;fontSize=16;" vertex="1" parent="5ntVKc6Pq-QmaucN38MB-38">
          <mxGeometry x="480" width="120" height="40" as="geometry">
            <mxRectangle width="120" height="40" as="alternateBounds" />
          </mxGeometry>
        </mxCell>
        <mxCell id="5ntVKc6Pq-QmaucN38MB-45" value="AccountID" style="shape=partialRectangle;html=1;whiteSpace=wrap;connectable=0;overflow=hidden;fillColor=none;top=0;left=0;bottom=0;right=0;pointerEvents=1;fontStyle=0;fontFamily=Times New Roman;fontSize=16;" vertex="1" parent="5ntVKc6Pq-QmaucN38MB-38">
          <mxGeometry x="600" width="120" height="40" as="geometry">
            <mxRectangle width="120" height="40" as="alternateBounds" />
          </mxGeometry>
        </mxCell>
        <mxCell id="5ntVKc6Pq-QmaucN38MB-46" value="ContactID" style="shape=partialRectangle;html=1;whiteSpace=wrap;connectable=0;overflow=hidden;fillColor=none;top=0;left=0;bottom=0;right=0;pointerEvents=1;fontStyle=0;fontFamily=Times New Roman;fontSize=16;" vertex="1" parent="5ntVKc6Pq-QmaucN38MB-38">
          <mxGeometry x="720" width="120" height="40" as="geometry">
            <mxRectangle width="120" height="40" as="alternateBounds" />
          </mxGeometry>
        </mxCell>
        <mxCell id="mEQ5S8OBxncR9a9ROYgm-114" value="BankCardNo" style="shape=partialRectangle;html=1;whiteSpace=wrap;connectable=0;overflow=hidden;fillColor=none;top=0;left=0;bottom=0;right=0;pointerEvents=1;fontStyle=0;fontFamily=Times New Roman;fontSize=16;" vertex="1" parent="5ntVKc6Pq-QmaucN38MB-38">
          <mxGeometry x="840" width="120" height="40" as="geometry">
            <mxRectangle width="120" height="40" as="alternateBounds" />
          </mxGeometry>
        </mxCell>
        <mxCell id="mEQ5S8OBxncR9a9ROYgm-56" value="" style="endArrow=classic;html=1;rounded=0;fontFamily=Times New Roman;fontSize=16;" edge="1" parent="5ntVKc6Pq-QmaucN38MB-37">
          <mxGeometry width="50" height="50" relative="1" as="geometry">
            <mxPoint x="60" as="sourcePoint" />
            <mxPoint x="180" as="targetPoint" />
            <Array as="points">
              <mxPoint x="60" y="-30" />
              <mxPoint x="180" y="-30" />
            </Array>
          </mxGeometry>
        </mxCell>
        <mxCell id="5ntVKc6Pq-QmaucN38MB-44" value="&lt;b id=&quot;docs-internal-guid-a4ec11b0-7fff-3c7a-0a97-6ece3e0d5e1d&quot; style=&quot;font-weight: normal; font-size: 16px;&quot;&gt;&lt;span style=&quot;font-size: 16px; color: rgb(0, 0, 0); background-color: transparent; font-weight: 400; font-style: normal; font-variant: normal; text-decoration: none; vertical-align: baseline;&quot;&gt;Customer&lt;/span&gt;&lt;/b&gt;" style="text;whiteSpace=wrap;html=1;fontFamily=Times New Roman;fontSize=16;" vertex="1" parent="1">
          <mxGeometry x="60" y="-900" width="100" height="40" as="geometry" />
        </mxCell>
        <mxCell id="5ntVKc6Pq-QmaucN38MB-47" value="&lt;b id=&quot;docs-internal-guid-02918027-7fff-9da1-043d-0a4d5eb78475&quot; style=&quot;font-weight: normal; font-size: 16px;&quot;&gt;&lt;span style=&quot;font-size: 16px; color: rgb(0, 0, 0); background-color: transparent; font-weight: 400; font-style: normal; font-variant: normal; text-decoration: none; vertical-align: baseline;&quot;&gt;Location&lt;/span&gt;&lt;/b&gt;" style="text;whiteSpace=wrap;html=1;fontFamily=Times New Roman;fontSize=16;" vertex="1" parent="1">
          <mxGeometry x="1179.93" y="-600" width="100" height="40" as="geometry" />
        </mxCell>
        <mxCell id="5ntVKc6Pq-QmaucN38MB-49" value="&lt;b id=&quot;docs-internal-guid-f39d81c7-7fff-2d90-e26a-eef3a0a5c377&quot; style=&quot;font-weight: normal; font-size: 16px;&quot;&gt;&lt;span style=&quot;font-size: 16px; color: rgb(0, 0, 0); background-color: transparent; font-weight: 400; font-style: normal; font-variant: normal; text-decoration: none; vertical-align: baseline;&quot;&gt;WalletAccount&lt;/span&gt;&lt;/b&gt;" style="text;whiteSpace=wrap;html=1;fontFamily=Times New Roman;fontSize=16;" vertex="1" parent="1">
          <mxGeometry x="1179.93" y="-880" width="140" height="40" as="geometry" />
        </mxCell>
        <mxCell id="5ntVKc6Pq-QmaucN38MB-50" value="" style="shape=table;startSize=0;container=1;collapsible=0;childLayout=tableLayout;fontFamily=Times New Roman;fontSize=16;" vertex="1" parent="1">
          <mxGeometry x="1179.93" y="-710" width="480" height="40" as="geometry" />
        </mxCell>
        <mxCell id="5ntVKc6Pq-QmaucN38MB-51" value="" style="shape=tableRow;horizontal=0;startSize=0;swimlaneHead=0;swimlaneBody=0;top=0;left=0;bottom=0;right=0;collapsible=0;dropTarget=0;fillColor=none;points=[[0,0.5],[1,0.5]];portConstraint=eastwest;fontFamily=Times New Roman;fontSize=16;" vertex="1" parent="5ntVKc6Pq-QmaucN38MB-50">
          <mxGeometry width="480" height="40" as="geometry" />
        </mxCell>
        <mxCell id="5ntVKc6Pq-QmaucN38MB-52" value="&lt;b style=&quot;font-size: 16px;&quot;&gt;&lt;u style=&quot;font-size: 16px;&quot;&gt;ContactID&lt;/u&gt;&lt;/b&gt;" style="shape=partialRectangle;html=1;whiteSpace=wrap;connectable=0;overflow=hidden;fillColor=none;top=0;left=0;bottom=0;right=0;pointerEvents=1;fontFamily=Times New Roman;fontSize=16;" vertex="1" parent="5ntVKc6Pq-QmaucN38MB-51">
          <mxGeometry width="120" height="40" as="geometry">
            <mxRectangle width="120" height="40" as="alternateBounds" />
          </mxGeometry>
        </mxCell>
        <mxCell id="5ntVKc6Pq-QmaucN38MB-53" value="Phone" style="shape=partialRectangle;html=1;whiteSpace=wrap;connectable=0;overflow=hidden;fillColor=none;top=0;left=0;bottom=0;right=0;pointerEvents=1;fontFamily=Times New Roman;fontSize=16;" vertex="1" parent="5ntVKc6Pq-QmaucN38MB-51">
          <mxGeometry x="120" width="120" height="40" as="geometry">
            <mxRectangle width="120" height="40" as="alternateBounds" />
          </mxGeometry>
        </mxCell>
        <mxCell id="5ntVKc6Pq-QmaucN38MB-54" value="Email" style="shape=partialRectangle;html=1;whiteSpace=wrap;connectable=0;overflow=hidden;fillColor=none;top=0;left=0;bottom=0;right=0;pointerEvents=1;fontFamily=Times New Roman;fontSize=16;" vertex="1" parent="5ntVKc6Pq-QmaucN38MB-51">
          <mxGeometry x="240" width="120" height="40" as="geometry">
            <mxRectangle width="120" height="40" as="alternateBounds" />
          </mxGeometry>
        </mxCell>
        <mxCell id="mEQ5S8OBxncR9a9ROYgm-69" value="LocationID" style="shape=partialRectangle;html=1;whiteSpace=wrap;connectable=0;overflow=hidden;fillColor=none;top=0;left=0;bottom=0;right=0;pointerEvents=1;fontFamily=Times New Roman;fontSize=16;" vertex="1" parent="5ntVKc6Pq-QmaucN38MB-51">
          <mxGeometry x="360" width="120" height="40" as="geometry">
            <mxRectangle width="120" height="40" as="alternateBounds" />
          </mxGeometry>
        </mxCell>
        <mxCell id="5ntVKc6Pq-QmaucN38MB-57" value="&lt;b id=&quot;docs-internal-guid-8ed2fcb2-7fff-5e69-feaa-924a2a79c1ec&quot; style=&quot;font-weight: normal; font-size: 16px;&quot;&gt;&lt;span style=&quot;font-size: 16px; color: rgb(0, 0, 0); background-color: transparent; font-weight: 400; font-style: normal; font-variant: normal; text-decoration: none; vertical-align: baseline;&quot;&gt;Contact&lt;/span&gt;&lt;/b&gt;" style="text;whiteSpace=wrap;html=1;fontFamily=Times New Roman;fontSize=16;" vertex="1" parent="1">
          <mxGeometry x="1179.93" y="-760" width="90" height="40" as="geometry" />
        </mxCell>
        <mxCell id="UuyItOIB2tCT60mz2fpE-77" value="&lt;span id=&quot;docs-internal-guid-a4861911-7fff-0861-a17a-e583005151e1&quot; style=&quot;font-size: 16px;&quot;&gt;&lt;span style=&quot;font-size: 16px; background-color: transparent; font-variant-numeric: normal; font-variant-east-asian: normal; vertical-align: baseline;&quot;&gt;Transaction&lt;/span&gt;&lt;/span&gt;" style="text;whiteSpace=wrap;html=1;fontFamily=Times New Roman;fontSize=16;" vertex="1" parent="1">
          <mxGeometry x="69.89" y="-680" width="100" height="40" as="geometry" />
        </mxCell>
        <mxCell id="UuyItOIB2tCT60mz2fpE-89" value="&lt;span id=&quot;docs-internal-guid-a4861911-7fff-0861-a17a-e583005151e1&quot; style=&quot;font-size: 16px;&quot;&gt;&lt;span style=&quot;font-size: 16px; background-color: transparent; font-variant-numeric: normal; font-variant-east-asian: normal; vertical-align: baseline;&quot;&gt;Security&lt;/span&gt;&lt;/span&gt;" style="text;whiteSpace=wrap;html=1;fontFamily=Times New Roman;fontSize=16;" vertex="1" parent="1">
          <mxGeometry x="1180" y="-1020" width="100" height="40" as="geometry" />
        </mxCell>
        <mxCell id="UuyItOIB2tCT60mz2fpE-90" value="&lt;span id=&quot;docs-internal-guid-aaa7512b-7fff-998f-f191-fbcd9912985c&quot; style=&quot;font-size: 16px;&quot;&gt;&lt;span style=&quot;font-size: 16px; background-color: transparent; font-variant-numeric: normal; font-variant-east-asian: normal; vertical-align: baseline;&quot;&gt;LuckyWallet&lt;/span&gt;&lt;/span&gt;" style="text;whiteSpace=wrap;html=1;fontFamily=Times New Roman;fontSize=16;" vertex="1" parent="1">
          <mxGeometry x="1180" y="-1130" width="100" height="40" as="geometry" />
        </mxCell>
        <mxCell id="mEQ5S8OBxncR9a9ROYgm-52" value="&lt;font style=&quot;font-size: 16px;&quot;&gt;&lt;span style=&quot;font-size: 16px;&quot;&gt;CompanyPartner&lt;/span&gt;&lt;/font&gt;" style="shape=partialRectangle;html=1;whiteSpace=wrap;connectable=0;overflow=hidden;fillColor=none;top=0;left=0;bottom=0;right=0;pointerEvents=1;fontFamily=Times New Roman;fontSize=16;" vertex="1" parent="1">
          <mxGeometry x="1180" y="-470" width="120" height="40" as="geometry">
            <mxRectangle width="120" height="40" as="alternateBounds" />
          </mxGeometry>
        </mxCell>
        <mxCell id="mEQ5S8OBxncR9a9ROYgm-53" value="&lt;font style=&quot;font-size: 16px;&quot;&gt;&lt;span style=&quot;font-size: 16px;&quot;&gt;Cooperate&lt;/span&gt;&lt;/font&gt;" style="shape=partialRectangle;html=1;whiteSpace=wrap;connectable=0;overflow=hidden;fillColor=none;top=0;left=0;bottom=0;right=0;pointerEvents=1;fontFamily=Times New Roman;fontSize=16;align=left;" vertex="1" parent="1">
          <mxGeometry x="1230" y="-350" width="120" height="40" as="geometry">
            <mxRectangle width="120" height="40" as="alternateBounds" />
          </mxGeometry>
        </mxCell>
        <mxCell id="mEQ5S8OBxncR9a9ROYgm-54" value="&lt;span id=&quot;docs-internal-guid-aaa7512b-7fff-998f-f191-fbcd9912985c&quot; style=&quot;font-size: 16px;&quot;&gt;&lt;span style=&quot;font-size: 16px; background-color: transparent; font-variant-numeric: normal; font-variant-east-asian: normal; vertical-align: baseline;&quot;&gt;Bank&lt;/span&gt;&lt;/span&gt;" style="text;whiteSpace=wrap;html=1;fontFamily=Times New Roman;fontSize=16;" vertex="1" parent="1">
          <mxGeometry x="1190" y="-240" width="100" height="40" as="geometry" />
        </mxCell>
        <mxCell id="mEQ5S8OBxncR9a9ROYgm-58" value="" style="endArrow=classic;html=1;rounded=0;fontFamily=Times New Roman;fontSize=16;" edge="1" parent="1">
          <mxGeometry width="50" height="50" relative="1" as="geometry">
            <mxPoint x="120" y="-869.9999999999999" as="sourcePoint" />
            <mxPoint x="360" y="-870" as="targetPoint" />
            <Array as="points">
              <mxPoint x="120" y="-900" />
              <mxPoint x="360" y="-900" />
            </Array>
          </mxGeometry>
        </mxCell>
        <mxCell id="mEQ5S8OBxncR9a9ROYgm-59" value="" style="endArrow=classic;html=1;rounded=0;fontFamily=Times New Roman;fontSize=16;entryX=0.437;entryY=0.003;entryDx=0;entryDy=0;entryPerimeter=0;" edge="1" parent="1" target="5ntVKc6Pq-QmaucN38MB-38">
          <mxGeometry width="50" height="50" relative="1" as="geometry">
            <mxPoint x="120" y="-869.9999999999999" as="sourcePoint" />
            <mxPoint x="359.8800000000001" y="-870.3199999999999" as="targetPoint" />
            <Array as="points">
              <mxPoint x="120" y="-900" />
              <mxPoint x="480" y="-900" />
            </Array>
          </mxGeometry>
        </mxCell>
        <mxCell id="mEQ5S8OBxncR9a9ROYgm-60" value="" style="endArrow=classic;html=1;rounded=0;fontFamily=Times New Roman;fontSize=16;entryX=0.563;entryY=-0.022;entryDx=0;entryDy=0;entryPerimeter=0;" edge="1" parent="1" target="5ntVKc6Pq-QmaucN38MB-38">
          <mxGeometry width="50" height="50" relative="1" as="geometry">
            <mxPoint x="120" y="-869.9999999999999" as="sourcePoint" />
            <mxPoint x="480" y="-869.9999999999999" as="targetPoint" />
            <Array as="points">
              <mxPoint x="120" y="-900" />
              <mxPoint x="600" y="-900" />
            </Array>
          </mxGeometry>
        </mxCell>
        <mxCell id="mEQ5S8OBxncR9a9ROYgm-55" value="&lt;span id=&quot;docs-internal-guid-aaa7512b-7fff-998f-f191-fbcd9912985c&quot; style=&quot;font-size: 16px;&quot;&gt;&lt;span style=&quot;font-size: 16px; background-color: transparent; font-variant-numeric: normal; font-variant-east-asian: normal; vertical-align: baseline;&quot;&gt;BankAccount&lt;/span&gt;&lt;/span&gt;" style="text;whiteSpace=wrap;html=1;fontFamily=Times New Roman;fontSize=16;" vertex="1" parent="1">
          <mxGeometry x="1190" y="-150" width="100" height="40" as="geometry" />
        </mxCell>
        <mxCell id="rSjZ1H57eVrz_qU8TmC0-16" value="" style="endArrow=classic;html=1;rounded=0;fontFamily=Times New Roman;fontSize=16;" edge="1" parent="1">
          <mxGeometry width="50" height="50" relative="1" as="geometry">
            <mxPoint x="1239.93" y="-570" as="sourcePoint" />
            <mxPoint x="1359.93" y="-570" as="targetPoint" />
            <Array as="points">
              <mxPoint x="1239.93" y="-600" />
              <mxPoint x="1359.93" y="-600" />
            </Array>
          </mxGeometry>
        </mxCell>
        <mxCell id="rSjZ1H57eVrz_qU8TmC0-18" value="" style="endArrow=classic;html=1;rounded=0;fontFamily=Times New Roman;fontSize=16;entryX=0.357;entryY=-0.008;entryDx=0;entryDy=0;entryPerimeter=0;" edge="1" parent="1">
          <mxGeometry width="50" height="50" relative="1" as="geometry">
            <mxPoint x="1239.93" y="-569.9999999999999" as="sourcePoint" />
            <mxPoint x="1479.8100000000002" y="-570.32" as="targetPoint" />
            <Array as="points">
              <mxPoint x="1239.93" y="-600" />
              <mxPoint x="1479.93" y="-600" />
            </Array>
          </mxGeometry>
        </mxCell>
        <mxCell id="rSjZ1H57eVrz_qU8TmC0-21" value="" style="endArrow=classic;html=1;rounded=0;fontFamily=Times New Roman;fontSize=16;" edge="1" parent="1">
          <mxGeometry width="50" height="50" relative="1" as="geometry">
            <mxPoint x="1239.93" y="-569.9999999999999" as="sourcePoint" />
            <mxPoint x="1599.93" y="-570" as="targetPoint" />
            <Array as="points">
              <mxPoint x="1239.93" y="-600" />
              <mxPoint x="1599.93" y="-600" />
            </Array>
          </mxGeometry>
        </mxCell>
        <mxCell id="rSjZ1H57eVrz_qU8TmC0-22" value="" style="endArrow=classic;html=1;rounded=0;fontFamily=Times New Roman;fontSize=16;entryX=0.642;entryY=-0.053;entryDx=0;entryDy=0;entryPerimeter=0;" edge="1" parent="1">
          <mxGeometry width="50" height="50" relative="1" as="geometry">
            <mxPoint x="1239.93" y="-569.9999999999999" as="sourcePoint" />
            <mxPoint x="1719.21" y="-572.12" as="targetPoint" />
            <Array as="points">
              <mxPoint x="1239.93" y="-600" />
              <mxPoint x="1719.93" y="-600" />
            </Array>
          </mxGeometry>
        </mxCell>
        <mxCell id="rSjZ1H57eVrz_qU8TmC0-23" value="" style="endArrow=classic;html=1;rounded=0;fontFamily=Times New Roman;fontSize=16;entryX=0.786;entryY=-0.042;entryDx=0;entryDy=0;entryPerimeter=0;" edge="1" parent="1">
          <mxGeometry width="50" height="50" relative="1" as="geometry">
            <mxPoint x="1239.8100000000002" y="-569.9999999999999" as="sourcePoint" />
            <mxPoint x="1840.05" y="-571.6800000000001" as="targetPoint" />
            <Array as="points">
              <mxPoint x="1239.8100000000002" y="-600" />
              <mxPoint x="1839.8100000000002" y="-600" />
            </Array>
          </mxGeometry>
        </mxCell>
        <mxCell id="mEQ5S8OBxncR9a9ROYgm-64" value="" style="endArrow=classic;html=1;rounded=0;fontFamily=Times New Roman;fontSize=16;" edge="1" parent="1">
          <mxGeometry width="50" height="50" relative="1" as="geometry">
            <mxPoint x="1233.05" y="-826" as="sourcePoint" />
            <mxPoint x="1353.05" y="-826" as="targetPoint" />
            <Array as="points">
              <mxPoint x="1233.05" y="-856" />
              <mxPoint x="1353.05" y="-856" />
            </Array>
          </mxGeometry>
        </mxCell>
        <mxCell id="mEQ5S8OBxncR9a9ROYgm-66" value="" style="endArrow=classic;html=1;rounded=0;fontFamily=Times New Roman;fontSize=16;" edge="1" parent="1">
          <mxGeometry width="50" height="50" relative="1" as="geometry">
            <mxPoint x="1233.05" y="-826" as="sourcePoint" />
            <mxPoint x="1593.05" y="-826" as="targetPoint" />
            <Array as="points">
              <mxPoint x="1233.05" y="-856" />
              <mxPoint x="1593.05" y="-856" />
            </Array>
          </mxGeometry>
        </mxCell>
        <mxCell id="rSjZ1H57eVrz_qU8TmC0-24" value="" style="endArrow=classic;html=1;rounded=0;fontFamily=Times New Roman;fontSize=16;" edge="1" parent="1">
          <mxGeometry width="50" height="50" relative="1" as="geometry">
            <mxPoint x="1229.93" y="-710" as="sourcePoint" />
            <mxPoint x="1349.93" y="-710" as="targetPoint" />
            <Array as="points">
              <mxPoint x="1229.93" y="-740" />
              <mxPoint x="1349.93" y="-740" />
            </Array>
          </mxGeometry>
        </mxCell>
        <mxCell id="rSjZ1H57eVrz_qU8TmC0-25" value="" style="endArrow=classic;html=1;rounded=0;fontFamily=Times New Roman;fontSize=16;entryX=0.357;entryY=-0.008;entryDx=0;entryDy=0;entryPerimeter=0;" edge="1" parent="1">
          <mxGeometry width="50" height="50" relative="1" as="geometry">
            <mxPoint x="1229.93" y="-710" as="sourcePoint" />
            <mxPoint x="1469.8100000000006" y="-710.3200000000002" as="targetPoint" />
            <Array as="points">
              <mxPoint x="1229.93" y="-740" />
              <mxPoint x="1469.93" y="-740" />
            </Array>
          </mxGeometry>
        </mxCell>
        <mxCell id="Ft31pjSwO6Qs9RVCdsp_-1" value="" style="endArrow=classic;html=1;rounded=0;fontFamily=Times New Roman;fontSize=16;" edge="1" parent="1">
          <mxGeometry width="50" height="50" relative="1" as="geometry">
            <mxPoint x="129.88999999999987" y="-640" as="sourcePoint" />
            <mxPoint x="249.88999999999987" y="-640" as="targetPoint" />
            <Array as="points">
              <mxPoint x="129.89" y="-670" />
              <mxPoint x="249.88999999999987" y="-670" />
            </Array>
          </mxGeometry>
        </mxCell>
        <mxCell id="mEQ5S8OBxncR9a9ROYgm-70" value="" style="endArrow=classic;html=1;rounded=0;fontFamily=Times New Roman;fontSize=16;exitX=0.687;exitY=1.083;exitDx=0;exitDy=0;exitPerimeter=0;entryX=0;entryY=0.5;entryDx=0;entryDy=0;" edge="1" parent="1" source="5ntVKc6Pq-QmaucN38MB-38" target="mEQ5S8OBxncR9a9ROYgm-16">
          <mxGeometry width="50" height="50" relative="1" as="geometry">
            <mxPoint x="980" y="-680" as="sourcePoint" />
            <mxPoint x="1030" y="-730" as="targetPoint" />
            <Array as="points">
              <mxPoint x="720" y="-806" />
              <mxPoint x="1000" y="-806" />
              <mxPoint x="1130" y="-806" />
            </Array>
          </mxGeometry>
        </mxCell>
        <mxCell id="Ft31pjSwO6Qs9RVCdsp_-2" value="" style="endArrow=classic;html=1;rounded=0;fontFamily=Times New Roman;fontSize=16;entryX=0.357;entryY=-0.008;entryDx=0;entryDy=0;entryPerimeter=0;" edge="1" parent="1">
          <mxGeometry width="50" height="50" relative="1" as="geometry">
            <mxPoint x="129.88999999999987" y="-640" as="sourcePoint" />
            <mxPoint x="369.77000000000044" y="-640.3200000000002" as="targetPoint" />
            <Array as="points">
              <mxPoint x="129.89" y="-670" />
              <mxPoint x="369.8899999999999" y="-670" />
            </Array>
          </mxGeometry>
        </mxCell>
        <mxCell id="Ft31pjSwO6Qs9RVCdsp_-3" value="" style="endArrow=classic;html=1;rounded=0;fontFamily=Times New Roman;fontSize=16;" edge="1" parent="1">
          <mxGeometry width="50" height="50" relative="1" as="geometry">
            <mxPoint x="129.88999999999987" y="-640" as="sourcePoint" />
            <mxPoint x="489.8899999999999" y="-640" as="targetPoint" />
            <Array as="points">
              <mxPoint x="129.89" y="-670" />
              <mxPoint x="489.8899999999999" y="-670" />
            </Array>
          </mxGeometry>
        </mxCell>
        <mxCell id="Ft31pjSwO6Qs9RVCdsp_-4" value="" style="endArrow=classic;html=1;rounded=0;fontFamily=Times New Roman;fontSize=16;" edge="1" parent="1">
          <mxGeometry width="50" height="50" relative="1" as="geometry">
            <mxPoint x="1240" y="-970" as="sourcePoint" />
            <mxPoint x="1360" y="-970" as="targetPoint" />
            <Array as="points">
              <mxPoint x="1240" y="-1000" />
              <mxPoint x="1360" y="-1000" />
            </Array>
          </mxGeometry>
        </mxCell>
        <mxCell id="Ft31pjSwO6Qs9RVCdsp_-5" value="" style="endArrow=classic;html=1;rounded=0;fontFamily=Times New Roman;fontSize=16;entryX=0.357;entryY=-0.008;entryDx=0;entryDy=0;entryPerimeter=0;" edge="1" parent="1">
          <mxGeometry width="50" height="50" relative="1" as="geometry">
            <mxPoint x="1240" y="-970" as="sourcePoint" />
            <mxPoint x="1479.8800000000006" y="-970.3200000000002" as="targetPoint" />
            <Array as="points">
              <mxPoint x="1240" y="-1000" />
              <mxPoint x="1480" y="-1000" />
            </Array>
          </mxGeometry>
        </mxCell>
        <mxCell id="Ft31pjSwO6Qs9RVCdsp_-6" value="" style="endArrow=classic;html=1;rounded=0;fontFamily=Times New Roman;fontSize=16;" edge="1" parent="1">
          <mxGeometry width="50" height="50" relative="1" as="geometry">
            <mxPoint x="1240" y="-970" as="sourcePoint" />
            <mxPoint x="1600" y="-970" as="targetPoint" />
            <Array as="points">
              <mxPoint x="1240" y="-1000" />
              <mxPoint x="1600" y="-1000" />
            </Array>
          </mxGeometry>
        </mxCell>
        <mxCell id="Ft31pjSwO6Qs9RVCdsp_-7" value="" style="endArrow=classic;html=1;rounded=0;fontFamily=Times New Roman;fontSize=16;" edge="1" parent="1">
          <mxGeometry width="50" height="50" relative="1" as="geometry">
            <mxPoint x="1240" y="-430" as="sourcePoint" />
            <mxPoint x="1360" y="-430" as="targetPoint" />
            <Array as="points">
              <mxPoint x="1240" y="-460" />
              <mxPoint x="1360" y="-460" />
            </Array>
          </mxGeometry>
        </mxCell>
        <mxCell id="Ft31pjSwO6Qs9RVCdsp_-8" value="" style="endArrow=classic;html=1;rounded=0;fontFamily=Times New Roman;fontSize=16;entryX=0.357;entryY=-0.008;entryDx=0;entryDy=0;entryPerimeter=0;" edge="1" parent="1">
          <mxGeometry width="50" height="50" relative="1" as="geometry">
            <mxPoint x="1240" y="-430" as="sourcePoint" />
            <mxPoint x="1479.8800000000006" y="-430.32000000000016" as="targetPoint" />
            <Array as="points">
              <mxPoint x="1240" y="-460" />
              <mxPoint x="1480" y="-460" />
            </Array>
          </mxGeometry>
        </mxCell>
        <mxCell id="Ft31pjSwO6Qs9RVCdsp_-14" value="" style="endArrow=classic;html=1;rounded=0;fontFamily=Times New Roman;fontSize=16;entryX=0.357;entryY=-0.008;entryDx=0;entryDy=0;entryPerimeter=0;" edge="1" parent="1">
          <mxGeometry width="50" height="50" relative="1" as="geometry">
            <mxPoint x="1250" y="-110" as="sourcePoint" />
            <mxPoint x="1489.8800000000006" y="-110.32000000000016" as="targetPoint" />
            <Array as="points">
              <mxPoint x="1250" y="-140" />
              <mxPoint x="1490" y="-140" />
            </Array>
          </mxGeometry>
        </mxCell>
        <mxCell id="Ft31pjSwO6Qs9RVCdsp_-20" value="" style="endArrow=classic;html=1;rounded=0;fontFamily=Times New Roman;fontSize=16;entryX=0.69;entryY=-0.032;entryDx=0;entryDy=0;entryPerimeter=0;edgeStyle=orthogonalEdgeStyle;" edge="1" parent="1" target="mEQ5S8OBxncR9a9ROYgm-2">
          <mxGeometry width="50" height="50" relative="1" as="geometry">
            <mxPoint x="129.89" y="-640" as="sourcePoint" />
            <mxPoint x="489.89" y="-640" as="targetPoint" />
            <Array as="points">
              <mxPoint x="129.89" y="-670" />
              <mxPoint x="649.89" y="-670" />
            </Array>
          </mxGeometry>
        </mxCell>
        <mxCell id="Ft31pjSwO6Qs9RVCdsp_-21" value="" style="endArrow=none;dashed=1;html=1;dashPattern=1 3;strokeWidth=2;rounded=0;" edge="1" parent="1">
          <mxGeometry width="50" height="50" relative="1" as="geometry">
            <mxPoint x="690" y="-840" as="sourcePoint" />
            <mxPoint x="750" y="-840" as="targetPoint" />
          </mxGeometry>
        </mxCell>
        <mxCell id="Ft31pjSwO6Qs9RVCdsp_-22" value="" style="endArrow=none;dashed=1;html=1;dashPattern=1 3;strokeWidth=2;rounded=0;" edge="1" parent="1">
          <mxGeometry width="50" height="50" relative="1" as="geometry">
            <mxPoint x="810" y="-840" as="sourcePoint" />
            <mxPoint x="870" y="-840" as="targetPoint" />
          </mxGeometry>
        </mxCell>
        <mxCell id="Ft31pjSwO6Qs9RVCdsp_-24" value="" style="endArrow=classic;html=1;rounded=0;fontFamily=Times New Roman;fontSize=16;exitX=0.798;exitY=1.052;exitDx=0;exitDy=0;exitPerimeter=0;entryX=0;entryY=0.5;entryDx=0;entryDy=0;edgeStyle=orthogonalEdgeStyle;" edge="1" parent="1" source="5ntVKc6Pq-QmaucN38MB-38" target="5ntVKc6Pq-QmaucN38MB-51">
          <mxGeometry width="50" height="50" relative="1" as="geometry">
            <mxPoint x="732.76" y="-779.6800000000001" as="sourcePoint" />
            <mxPoint x="930" y="-676" as="targetPoint" />
            <Array as="points">
              <mxPoint x="826" y="-690" />
            </Array>
          </mxGeometry>
        </mxCell>
        <mxCell id="Ft31pjSwO6Qs9RVCdsp_-25" value="" style="endArrow=none;dashed=1;html=1;dashPattern=1 3;strokeWidth=2;rounded=0;" edge="1" parent="1">
          <mxGeometry width="50" height="50" relative="1" as="geometry">
            <mxPoint x="1569.93" y="-680" as="sourcePoint" />
            <mxPoint x="1629.93" y="-680" as="targetPoint" />
          </mxGeometry>
        </mxCell>
        <mxCell id="Ft31pjSwO6Qs9RVCdsp_-26" value="" style="endArrow=none;dashed=1;html=1;dashPattern=1 3;strokeWidth=2;rounded=0;" edge="1" parent="1">
          <mxGeometry width="50" height="50" relative="1" as="geometry">
            <mxPoint x="1689.93" y="-790" as="sourcePoint" />
            <mxPoint x="1749.93" y="-790" as="targetPoint" />
          </mxGeometry>
        </mxCell>
        <mxCell id="Ft31pjSwO6Qs9RVCdsp_-28" value="" style="endArrow=classic;html=1;rounded=0;fontFamily=Times New Roman;fontSize=16;exitX=0.88;exitY=1.008;exitDx=0;exitDy=0;exitPerimeter=0;entryX=0;entryY=0.5;entryDx=0;entryDy=0;edgeStyle=orthogonalEdgeStyle;" edge="1" parent="1" source="5ntVKc6Pq-QmaucN38MB-51" target="mEQ5S8OBxncR9a9ROYgm-9">
          <mxGeometry width="50" height="50" relative="1" as="geometry">
            <mxPoint x="1104.4099999999999" y="-898.76" as="sourcePoint" />
            <mxPoint x="1189.93" y="-680" as="targetPoint" />
            <Array as="points">
              <mxPoint x="1602" y="-620" />
              <mxPoint x="1150" y="-620" />
              <mxPoint x="1150" y="-550" />
            </Array>
          </mxGeometry>
        </mxCell>
        <mxCell id="Ft31pjSwO6Qs9RVCdsp_-29" value="" style="endArrow=classic;html=1;rounded=0;fontFamily=Times New Roman;fontSize=16;exitX=1;exitY=0.5;exitDx=0;exitDy=0;edgeStyle=orthogonalEdgeStyle;entryX=0.129;entryY=1.114;entryDx=0;entryDy=0;entryPerimeter=0;" edge="1" parent="1" source="mEQ5S8OBxncR9a9ROYgm-16" target="5ntVKc6Pq-QmaucN38MB-30">
          <mxGeometry width="50" height="50" relative="1" as="geometry">
            <mxPoint x="1492.3300000000002" y="-539.6800000000001" as="sourcePoint" />
            <mxPoint x="699.9300000000001" y="41.777750651041664" as="targetPoint" />
            <Array as="points">
              <mxPoint x="1830" y="-806" />
              <mxPoint x="1830" y="-900" />
              <mxPoint x="1242" y="-900" />
            </Array>
          </mxGeometry>
        </mxCell>
        <mxCell id="Ft31pjSwO6Qs9RVCdsp_-30" value="" style="endArrow=classic;html=1;rounded=0;fontFamily=Times New Roman;fontSize=16;entryX=0.812;entryY=0.014;entryDx=0;entryDy=0;entryPerimeter=0;edgeStyle=orthogonalEdgeStyle;" edge="1" parent="1" target="mEQ5S8OBxncR9a9ROYgm-2">
          <mxGeometry width="50" height="50" relative="1" as="geometry">
            <mxPoint x="129.89" y="-640" as="sourcePoint" />
            <mxPoint x="732.2900000000001" y="-641.2800000000002" as="targetPoint" />
            <Array as="points">
              <mxPoint x="129.89" y="-670" />
              <mxPoint x="751.89" y="-670" />
            </Array>
          </mxGeometry>
        </mxCell>
        <mxCell id="Ft31pjSwO6Qs9RVCdsp_-31" value="" style="endArrow=classic;html=1;rounded=0;fontFamily=Times New Roman;fontSize=16;entryX=0;entryY=0.5;entryDx=0;entryDy=0;edgeStyle=orthogonalEdgeStyle;" edge="1" parent="1" target="mEQ5S8OBxncR9a9ROYgm-44">
          <mxGeometry width="50" height="50" relative="1" as="geometry">
            <mxPoint x="810" y="-600" as="sourcePoint" />
            <mxPoint x="849.52" y="-149.44000000000005" as="targetPoint" />
            <Array as="points">
              <mxPoint x="810" y="-290" />
            </Array>
          </mxGeometry>
        </mxCell>
        <mxCell id="Ft31pjSwO6Qs9RVCdsp_-32" value="" style="endArrow=classic;html=1;rounded=0;fontFamily=Times New Roman;fontSize=16;edgeStyle=orthogonalEdgeStyle;" edge="1" parent="1" target="Ft31pjSwO6Qs9RVCdsp_-36">
          <mxGeometry x="-0.0742" y="10" width="50" height="50" relative="1" as="geometry">
            <mxPoint x="1342" y="-110" as="sourcePoint" />
            <mxPoint x="1668.32" y="-168.1199999999999" as="targetPoint" />
            <Array as="points">
              <mxPoint x="1342" y="-150" />
              <mxPoint x="1248" y="-150" />
            </Array>
            <mxPoint as="offset" />
          </mxGeometry>
        </mxCell>
        <mxCell id="Ft31pjSwO6Qs9RVCdsp_-35" value="" style="shape=table;startSize=0;container=1;collapsible=0;childLayout=tableLayout;" vertex="1" parent="1">
          <mxGeometry x="1190" y="-210" width="360" height="40" as="geometry" />
        </mxCell>
        <mxCell id="Ft31pjSwO6Qs9RVCdsp_-36" value="" style="shape=tableRow;horizontal=0;startSize=0;swimlaneHead=0;swimlaneBody=0;top=0;left=0;bottom=0;right=0;collapsible=0;dropTarget=0;fillColor=none;points=[[0,0.5],[1,0.5]];portConstraint=eastwest;" vertex="1" parent="Ft31pjSwO6Qs9RVCdsp_-35">
          <mxGeometry width="360" height="40" as="geometry" />
        </mxCell>
        <mxCell id="Ft31pjSwO6Qs9RVCdsp_-37" value="&lt;span style=&quot;color: rgb(0, 0, 0); font-family: &amp;quot;Times New Roman&amp;quot;; font-size: 16px; font-style: normal; font-variant-ligatures: normal; font-variant-caps: normal; font-weight: 700; letter-spacing: normal; orphans: 2; text-align: center; text-indent: 0px; text-transform: none; widows: 2; word-spacing: 0px; -webkit-text-stroke-width: 0px; background-color: rgb(251, 251, 251); text-decoration: underline; float: none; display: inline !important;&quot;&gt;BankID&lt;/span&gt;&lt;br&gt;" style="shape=partialRectangle;html=1;whiteSpace=wrap;connectable=0;overflow=hidden;fillColor=none;top=0;left=0;bottom=0;right=0;pointerEvents=1;" vertex="1" parent="Ft31pjSwO6Qs9RVCdsp_-36">
          <mxGeometry width="120" height="40" as="geometry">
            <mxRectangle width="120" height="40" as="alternateBounds" />
          </mxGeometry>
        </mxCell>
        <mxCell id="Ft31pjSwO6Qs9RVCdsp_-38" value="&lt;span style=&quot;font-family: &amp;quot;Times New Roman&amp;quot;; font-size: 16px;&quot;&gt;BankName&lt;/span&gt;" style="shape=partialRectangle;html=1;whiteSpace=wrap;connectable=0;overflow=hidden;fillColor=none;top=0;left=0;bottom=0;right=0;pointerEvents=1;" vertex="1" parent="Ft31pjSwO6Qs9RVCdsp_-36">
          <mxGeometry x="120" width="120" height="40" as="geometry">
            <mxRectangle width="120" height="40" as="alternateBounds" />
          </mxGeometry>
        </mxCell>
        <mxCell id="mEQ5S8OBxncR9a9ROYgm-136" value="CooperateID" style="shape=partialRectangle;html=1;whiteSpace=wrap;connectable=0;overflow=hidden;fillColor=none;top=0;left=0;bottom=0;right=0;pointerEvents=1;fontFamily=Times New Roman;fontSize=16;" vertex="1" parent="Ft31pjSwO6Qs9RVCdsp_-36">
          <mxGeometry x="240" width="120" height="40" as="geometry">
            <mxRectangle width="120" height="40" as="alternateBounds" />
          </mxGeometry>
        </mxCell>
        <mxCell id="Ft31pjSwO6Qs9RVCdsp_-54" value="" style="endArrow=none;dashed=1;html=1;dashPattern=1 3;strokeWidth=2;rounded=0;" edge="1" parent="1">
          <mxGeometry width="50" height="50" relative="1" as="geometry">
            <mxPoint x="1340" y="-80" as="sourcePoint" />
            <mxPoint x="1400" y="-80" as="targetPoint" />
          </mxGeometry>
        </mxCell>
        <mxCell id="Ft31pjSwO6Qs9RVCdsp_-75" value="" style="endArrow=none;dashed=1;html=1;dashPattern=1 3;strokeWidth=2;rounded=0;" edge="1" parent="1">
          <mxGeometry width="50" height="50" relative="1" as="geometry">
            <mxPoint x="1449.93" y="-800" as="sourcePoint" />
            <mxPoint x="1509.93" y="-800" as="targetPoint" />
          </mxGeometry>
        </mxCell>
        <mxCell id="Ft31pjSwO6Qs9RVCdsp_-76" value="" style="endArrow=classic;html=1;rounded=0;fontFamily=Times New Roman;fontSize=16;exitX=0.509;exitY=1.054;exitDx=0;exitDy=0;edgeStyle=orthogonalEdgeStyle;entryX=0.154;entryY=1.034;entryDx=0;entryDy=0;entryPerimeter=0;exitPerimeter=0;" edge="1" parent="1" source="mEQ5S8OBxncR9a9ROYgm-16" target="5ntVKc6Pq-QmaucN38MB-16">
          <mxGeometry width="50" height="50" relative="1" as="geometry">
            <mxPoint x="1478.08" y="-640" as="sourcePoint" />
            <mxPoint x="80.00000000000007" y="150.55999999999995" as="targetPoint" />
            <Array as="points">
              <mxPoint x="1485" y="-760" />
              <mxPoint x="1920" y="-760" />
              <mxPoint x="1920" y="-40" />
              <mxPoint x="1245" y="-40" />
            </Array>
          </mxGeometry>
        </mxCell>
        <mxCell id="Ft31pjSwO6Qs9RVCdsp_-79" value="" style="shape=table;startSize=0;container=1;collapsible=0;childLayout=tableLayout;" vertex="1" parent="1">
          <mxGeometry x="1550" y="-210" width="113" height="40" as="geometry" />
        </mxCell>
        <mxCell id="Ft31pjSwO6Qs9RVCdsp_-80" value="" style="shape=tableRow;horizontal=0;startSize=0;swimlaneHead=0;swimlaneBody=0;top=0;left=0;bottom=0;right=0;collapsible=0;dropTarget=0;fillColor=none;points=[[0,0.5],[1,0.5]];portConstraint=eastwest;" vertex="1" parent="Ft31pjSwO6Qs9RVCdsp_-79">
          <mxGeometry width="113" height="40" as="geometry" />
        </mxCell>
        <mxCell id="Ft31pjSwO6Qs9RVCdsp_-81" value="&lt;span style=&quot;font-family: &amp;quot;Times New Roman&amp;quot;; font-size: 16px;&quot;&gt;LocationID&lt;/span&gt;" style="shape=partialRectangle;html=1;whiteSpace=wrap;connectable=0;overflow=hidden;fillColor=none;top=0;left=0;bottom=0;right=0;pointerEvents=1;" vertex="1" parent="Ft31pjSwO6Qs9RVCdsp_-80">
          <mxGeometry width="113" height="40" as="geometry">
            <mxRectangle width="113" height="40" as="alternateBounds" />
          </mxGeometry>
        </mxCell>
        <mxCell id="Ft31pjSwO6Qs9RVCdsp_-83" value="" style="endArrow=none;dashed=1;html=1;dashPattern=1 3;strokeWidth=2;rounded=0;" edge="1" parent="1">
          <mxGeometry width="50" height="50" relative="1" as="geometry">
            <mxPoint x="1456.5" y="-180" as="sourcePoint" />
            <mxPoint x="1516.5" y="-180" as="targetPoint" />
          </mxGeometry>
        </mxCell>
        <mxCell id="Ft31pjSwO6Qs9RVCdsp_-84" value="" style="endArrow=classic;html=1;rounded=0;fontFamily=Times New Roman;fontSize=16;edgeStyle=orthogonalEdgeStyle;exitX=1;exitY=0.5;exitDx=0;exitDy=0;entryX=0.079;entryY=1.002;entryDx=0;entryDy=0;entryPerimeter=0;" edge="1" parent="1" source="Ft31pjSwO6Qs9RVCdsp_-80" target="mEQ5S8OBxncR9a9ROYgm-9">
          <mxGeometry width="50" height="50" relative="1" as="geometry">
            <mxPoint x="879.76" y="889.2400000000002" as="sourcePoint" />
            <mxPoint x="1100.235" y="889.7199999999998" as="targetPoint" />
            <Array as="points">
              <mxPoint x="1810" y="-190" />
              <mxPoint x="1810" y="-510" />
              <mxPoint x="1237" y="-510" />
            </Array>
          </mxGeometry>
        </mxCell>
        <mxCell id="Ft31pjSwO6Qs9RVCdsp_-85" value="" style="endArrow=none;dashed=1;html=1;dashPattern=1 3;strokeWidth=2;rounded=0;" edge="1" parent="1">
          <mxGeometry width="50" height="50" relative="1" as="geometry">
            <mxPoint x="1570" y="-400.00000000000045" as="sourcePoint" />
            <mxPoint x="1630" y="-400.00000000000045" as="targetPoint" />
          </mxGeometry>
        </mxCell>
        <mxCell id="Ft31pjSwO6Qs9RVCdsp_-86" value="" style="endArrow=classic;html=1;rounded=0;fontFamily=Times New Roman;fontSize=16;edgeStyle=orthogonalEdgeStyle;exitX=0.736;exitY=-0.056;exitDx=0;exitDy=0;entryX=0.066;entryY=1.032;entryDx=0;entryDy=0;entryPerimeter=0;exitPerimeter=0;" edge="1" parent="1" source="mEQ5S8OBxncR9a9ROYgm-30" target="mEQ5S8OBxncR9a9ROYgm-9">
          <mxGeometry width="50" height="50" relative="1" as="geometry">
            <mxPoint x="724.7600000000002" y="710.1199999999994" as="sourcePoint" />
            <mxPoint x="1190" y="-410" as="targetPoint" />
            <Array as="points">
              <mxPoint x="1622" y="-500" />
              <mxPoint x="1228" y="-500" />
            </Array>
          </mxGeometry>
        </mxCell>
        <mxCell id="mEQ5S8OBxncR9a9ROYgm-77" value="" style="shape=table;startSize=0;container=1;collapsible=0;childLayout=tableLayout;fontFamily=Times New Roman;fontSize=16;" vertex="1" parent="1">
          <mxGeometry x="69.89" y="-530" width="360" height="40" as="geometry" />
        </mxCell>
        <mxCell id="mEQ5S8OBxncR9a9ROYgm-78" value="" style="shape=tableRow;horizontal=0;startSize=0;swimlaneHead=0;swimlaneBody=0;top=0;left=0;bottom=0;right=0;collapsible=0;dropTarget=0;fillColor=none;points=[[0,0.5],[1,0.5]];portConstraint=eastwest;fontFamily=Times New Roman;fontSize=16;" vertex="1" parent="mEQ5S8OBxncR9a9ROYgm-77">
          <mxGeometry width="360" height="40" as="geometry" />
        </mxCell>
        <mxCell id="mEQ5S8OBxncR9a9ROYgm-79" value="&lt;span style=&quot;font-weight: 700; text-decoration-line: underline;&quot;&gt;TransID&lt;/span&gt;" style="shape=partialRectangle;html=1;whiteSpace=wrap;connectable=0;overflow=hidden;fillColor=none;top=0;left=0;bottom=0;right=0;pointerEvents=1;fontFamily=Times New Roman;fontSize=16;" vertex="1" parent="mEQ5S8OBxncR9a9ROYgm-78">
          <mxGeometry width="120" height="40" as="geometry">
            <mxRectangle width="120" height="40" as="alternateBounds" />
          </mxGeometry>
        </mxCell>
        <mxCell id="mEQ5S8OBxncR9a9ROYgm-80" value="&lt;span id=&quot;docs-internal-guid-399c7835-7fff-ded3-220f-79b16e979f2c&quot;&gt;&lt;span style=&quot;font-size: 14pt; background-color: transparent; font-variant-numeric: normal; font-variant-east-asian: normal; vertical-align: baseline;&quot;&gt;BankCardNo&lt;/span&gt;&lt;/span&gt;" style="shape=partialRectangle;html=1;whiteSpace=wrap;connectable=0;overflow=hidden;fillColor=none;top=0;left=0;bottom=0;right=0;pointerEvents=1;fontFamily=Times New Roman;fontSize=16;fontStyle=5" vertex="1" parent="mEQ5S8OBxncR9a9ROYgm-78">
          <mxGeometry x="120" width="120" height="40" as="geometry">
            <mxRectangle width="120" height="40" as="alternateBounds" />
          </mxGeometry>
        </mxCell>
        <mxCell id="mEQ5S8OBxncR9a9ROYgm-81" value="Volume" style="shape=partialRectangle;html=1;whiteSpace=wrap;connectable=0;overflow=hidden;fillColor=none;top=0;left=0;bottom=0;right=0;pointerEvents=1;fontFamily=Times New Roman;fontSize=16;" vertex="1" parent="mEQ5S8OBxncR9a9ROYgm-78">
          <mxGeometry x="240" width="120" height="40" as="geometry">
            <mxRectangle width="120" height="40" as="alternateBounds" />
          </mxGeometry>
        </mxCell>
        <mxCell id="mEQ5S8OBxncR9a9ROYgm-108" style="edgeStyle=orthogonalEdgeStyle;rounded=0;orthogonalLoop=1;jettySize=auto;html=1;fontFamily=Times New Roman;fontSize=16;" edge="1" parent="1" source="mEQ5S8OBxncR9a9ROYgm-93">
          <mxGeometry relative="1" as="geometry">
            <mxPoint x="1180" y="-820" as="targetPoint" />
            <Array as="points">
              <mxPoint x="200" y="-340" />
              <mxPoint x="1110" y="-340" />
              <mxPoint x="1110" y="-820" />
            </Array>
          </mxGeometry>
        </mxCell>
        <mxCell id="mEQ5S8OBxncR9a9ROYgm-93" value="" style="shape=table;startSize=0;container=1;collapsible=0;childLayout=tableLayout;fontFamily=Times New Roman;fontSize=16;" vertex="1" parent="1">
          <mxGeometry x="69.89" y="-410" width="360" height="40" as="geometry" />
        </mxCell>
        <mxCell id="mEQ5S8OBxncR9a9ROYgm-94" value="" style="shape=tableRow;horizontal=0;startSize=0;swimlaneHead=0;swimlaneBody=0;top=0;left=0;bottom=0;right=0;collapsible=0;dropTarget=0;fillColor=none;points=[[0,0.5],[1,0.5]];portConstraint=eastwest;fontFamily=Times New Roman;fontSize=16;" vertex="1" parent="mEQ5S8OBxncR9a9ROYgm-93">
          <mxGeometry width="360" height="40" as="geometry" />
        </mxCell>
        <mxCell id="mEQ5S8OBxncR9a9ROYgm-95" value="&lt;span style=&quot;font-weight: 700; text-decoration-line: underline;&quot;&gt;TransID&lt;/span&gt;" style="shape=partialRectangle;html=1;whiteSpace=wrap;connectable=0;overflow=hidden;fillColor=none;top=0;left=0;bottom=0;right=0;pointerEvents=1;fontFamily=Times New Roman;fontSize=16;" vertex="1" parent="mEQ5S8OBxncR9a9ROYgm-94">
          <mxGeometry width="120" height="40" as="geometry">
            <mxRectangle width="120" height="40" as="alternateBounds" />
          </mxGeometry>
        </mxCell>
        <mxCell id="mEQ5S8OBxncR9a9ROYgm-96" value="&lt;span id=&quot;docs-internal-guid-d4c1eec4-7fff-2de3-da79-6a6bbb5f5e7a&quot;&gt;&lt;span style=&quot;font-size: 14pt; background-color: transparent; font-variant-numeric: normal; font-variant-east-asian: normal; vertical-align: baseline;&quot;&gt;&lt;u&gt;&lt;b&gt;AccountID&lt;/b&gt;&lt;/u&gt;&lt;/span&gt;&lt;/span&gt;" style="shape=partialRectangle;html=1;whiteSpace=wrap;connectable=0;overflow=hidden;fillColor=none;top=0;left=0;bottom=0;right=0;pointerEvents=1;fontFamily=Times New Roman;fontSize=16;" vertex="1" parent="mEQ5S8OBxncR9a9ROYgm-94">
          <mxGeometry x="120" width="120" height="40" as="geometry">
            <mxRectangle width="120" height="40" as="alternateBounds" />
          </mxGeometry>
        </mxCell>
        <mxCell id="mEQ5S8OBxncR9a9ROYgm-97" value="Volume" style="shape=partialRectangle;html=1;whiteSpace=wrap;connectable=0;overflow=hidden;fillColor=none;top=0;left=0;bottom=0;right=0;pointerEvents=1;fontFamily=Times New Roman;fontSize=16;" vertex="1" parent="mEQ5S8OBxncR9a9ROYgm-94">
          <mxGeometry x="240" width="120" height="40" as="geometry">
            <mxRectangle width="120" height="40" as="alternateBounds" />
          </mxGeometry>
        </mxCell>
        <mxCell id="mEQ5S8OBxncR9a9ROYgm-109" style="edgeStyle=orthogonalEdgeStyle;rounded=0;orthogonalLoop=1;jettySize=auto;html=1;entryX=0;entryY=0.5;entryDx=0;entryDy=0;fontFamily=Times New Roman;fontSize=16;" edge="1" parent="1" source="mEQ5S8OBxncR9a9ROYgm-98" target="5ntVKc6Pq-QmaucN38MB-9">
          <mxGeometry relative="1" as="geometry">
            <Array as="points">
              <mxPoint x="200" y="-240" />
              <mxPoint x="1040" y="-240" />
              <mxPoint x="1040" y="-1070" />
            </Array>
          </mxGeometry>
        </mxCell>
        <mxCell id="mEQ5S8OBxncR9a9ROYgm-98" value="" style="shape=table;startSize=0;container=1;collapsible=0;childLayout=tableLayout;fontFamily=Times New Roman;fontSize=16;" vertex="1" parent="1">
          <mxGeometry x="69.89" y="-290" width="360" height="40" as="geometry" />
        </mxCell>
        <mxCell id="mEQ5S8OBxncR9a9ROYgm-99" value="" style="shape=tableRow;horizontal=0;startSize=0;swimlaneHead=0;swimlaneBody=0;top=0;left=0;bottom=0;right=0;collapsible=0;dropTarget=0;fillColor=none;points=[[0,0.5],[1,0.5]];portConstraint=eastwest;fontFamily=Times New Roman;fontSize=16;" vertex="1" parent="mEQ5S8OBxncR9a9ROYgm-98">
          <mxGeometry width="360" height="40" as="geometry" />
        </mxCell>
        <mxCell id="mEQ5S8OBxncR9a9ROYgm-100" value="&lt;span style=&quot;font-weight: 700; text-decoration-line: underline;&quot;&gt;TransID&lt;/span&gt;" style="shape=partialRectangle;html=1;whiteSpace=wrap;connectable=0;overflow=hidden;fillColor=none;top=0;left=0;bottom=0;right=0;pointerEvents=1;fontFamily=Times New Roman;fontSize=16;" vertex="1" parent="mEQ5S8OBxncR9a9ROYgm-99">
          <mxGeometry width="120" height="40" as="geometry">
            <mxRectangle width="120" height="40" as="alternateBounds" />
          </mxGeometry>
        </mxCell>
        <mxCell id="mEQ5S8OBxncR9a9ROYgm-101" value="&lt;span id=&quot;docs-internal-guid-1760419f-7fff-484f-3cd8-8651191d4db1&quot;&gt;&lt;span style=&quot;font-size: 14pt; background-color: transparent; font-variant-numeric: normal; font-variant-east-asian: normal; vertical-align: baseline;&quot;&gt;&lt;u&gt;&lt;b&gt;AccountID&lt;/b&gt;&lt;/u&gt;&lt;/span&gt;&lt;/span&gt;" style="shape=partialRectangle;html=1;whiteSpace=wrap;connectable=0;overflow=hidden;fillColor=none;top=0;left=0;bottom=0;right=0;pointerEvents=1;fontFamily=Times New Roman;fontSize=16;" vertex="1" parent="mEQ5S8OBxncR9a9ROYgm-99">
          <mxGeometry x="120" width="120" height="40" as="geometry">
            <mxRectangle width="120" height="40" as="alternateBounds" />
          </mxGeometry>
        </mxCell>
        <mxCell id="mEQ5S8OBxncR9a9ROYgm-102" value="Volume" style="shape=partialRectangle;html=1;whiteSpace=wrap;connectable=0;overflow=hidden;fillColor=none;top=0;left=0;bottom=0;right=0;pointerEvents=1;fontFamily=Times New Roman;fontSize=16;" vertex="1" parent="mEQ5S8OBxncR9a9ROYgm-99">
          <mxGeometry x="240" width="120" height="40" as="geometry">
            <mxRectangle width="120" height="40" as="alternateBounds" />
          </mxGeometry>
        </mxCell>
        <mxCell id="mEQ5S8OBxncR9a9ROYgm-103" style="edgeStyle=orthogonalEdgeStyle;rounded=0;orthogonalLoop=1;jettySize=auto;html=1;exitX=0;exitY=0.5;exitDx=0;exitDy=0;entryX=0.069;entryY=0.016;entryDx=0;entryDy=0;entryPerimeter=0;fontFamily=Times New Roman;fontSize=16;" edge="1" parent="1" source="5ntVKc6Pq-QmaucN38MB-9" target="mEQ5S8OBxncR9a9ROYgm-16">
          <mxGeometry relative="1" as="geometry">
            <Array as="points">
              <mxPoint x="1180" y="-1060" />
              <mxPoint x="1160" y="-1060" />
              <mxPoint x="1160" y="-840" />
              <mxPoint x="1221" y="-840" />
            </Array>
          </mxGeometry>
        </mxCell>
        <mxCell id="mEQ5S8OBxncR9a9ROYgm-104" style="edgeStyle=orthogonalEdgeStyle;rounded=0;orthogonalLoop=1;jettySize=auto;html=1;exitX=0;exitY=0.5;exitDx=0;exitDy=0;entryX=0;entryY=0.669;entryDx=0;entryDy=0;fontFamily=Times New Roman;fontSize=16;entryPerimeter=0;" edge="1" parent="1" source="mEQ5S8OBxncR9a9ROYgm-78" target="mEQ5S8OBxncR9a9ROYgm-2">
          <mxGeometry relative="1" as="geometry" />
        </mxCell>
        <mxCell id="mEQ5S8OBxncR9a9ROYgm-105" style="edgeStyle=orthogonalEdgeStyle;rounded=0;orthogonalLoop=1;jettySize=auto;html=1;exitX=0;exitY=0.5;exitDx=0;exitDy=0;fontFamily=Times New Roman;fontSize=16;" edge="1" parent="1" source="mEQ5S8OBxncR9a9ROYgm-94">
          <mxGeometry relative="1" as="geometry">
            <mxPoint x="69.88999999999977" y="-620" as="targetPoint" />
            <Array as="points">
              <mxPoint x="39.89" y="-390" />
              <mxPoint x="39.89" y="-620" />
            </Array>
          </mxGeometry>
        </mxCell>
        <mxCell id="mEQ5S8OBxncR9a9ROYgm-106" style="edgeStyle=orthogonalEdgeStyle;rounded=0;orthogonalLoop=1;jettySize=auto;html=1;exitX=0;exitY=0.5;exitDx=0;exitDy=0;fontFamily=Times New Roman;fontSize=16;" edge="1" parent="1" source="mEQ5S8OBxncR9a9ROYgm-99">
          <mxGeometry relative="1" as="geometry">
            <mxPoint x="69.89" y="-630" as="targetPoint" />
            <Array as="points">
              <mxPoint x="29.89" y="-270" />
              <mxPoint x="29.89" y="-630" />
              <mxPoint x="69.89" y="-630" />
            </Array>
          </mxGeometry>
        </mxCell>
        <mxCell id="mEQ5S8OBxncR9a9ROYgm-107" value="" style="endArrow=classic;html=1;rounded=0;fontFamily=Times New Roman;fontSize=16;entryX=0;entryY=0.5;entryDx=0;entryDy=0;" edge="1" parent="1" target="5ntVKc6Pq-QmaucN38MB-16">
          <mxGeometry width="50" height="50" relative="1" as="geometry">
            <mxPoint x="210" y="-490" as="sourcePoint" />
            <mxPoint x="770" y="-640" as="targetPoint" />
            <Array as="points">
              <mxPoint x="210" y="-470" />
              <mxPoint x="1060" y="-470" />
              <mxPoint x="1060" y="-90" />
            </Array>
          </mxGeometry>
        </mxCell>
        <mxCell id="mEQ5S8OBxncR9a9ROYgm-110" value="" style="endArrow=classic;html=1;rounded=0;fontFamily=Times New Roman;fontSize=16;exitX=0.643;exitY=1.016;exitDx=0;exitDy=0;exitPerimeter=0;entryX=0.005;entryY=1.035;entryDx=0;entryDy=0;entryPerimeter=0;" edge="1" parent="1" source="mEQ5S8OBxncR9a9ROYgm-2" target="mEQ5S8OBxncR9a9ROYgm-16">
          <mxGeometry width="50" height="50" relative="1" as="geometry">
            <mxPoint x="730" y="-550" as="sourcePoint" />
            <mxPoint x="1130" y="-560" as="targetPoint" />
            <Array as="points">
              <mxPoint x="610" y="-560" />
              <mxPoint x="1120" y="-560" />
              <mxPoint x="1120" y="-785" />
            </Array>
          </mxGeometry>
        </mxCell>
        <mxCell id="mEQ5S8OBxncR9a9ROYgm-111" value="&lt;span id=&quot;docs-internal-guid-a4861911-7fff-0861-a17a-e583005151e1&quot; style=&quot;font-size: 16px;&quot;&gt;&lt;span style=&quot;font-size: 16px; background-color: transparent; font-variant-numeric: normal; font-variant-east-asian: normal; vertical-align: baseline;&quot;&gt;TransBank&lt;/span&gt;&lt;/span&gt;&lt;span style=&quot;color: rgba(0, 0, 0, 0); font-family: monospace; font-size: 0px;&quot;&gt;%3CmxGraphModel%3E%3Croot%3E%3CmxCell%20id%3D%220%22%2F%3E%3CmxCell%20id%3D%221%22%20parent%3D%220%22%2F%3E%3CmxCell%20id%3D%222%22%20value%3D%22%26lt%3Bspan%20id%3D%26quot%3Bdocs-internal-guid-a4861911-7fff-0861-a17a-e583005151e1%26quot%3B%20style%3D%26quot%3Bfont-size%3A%2016px%3B%26quot%3B%26gt%3B%26lt%3Bspan%20style%3D%26quot%3Bfont-size%3A%2016px%3B%20background-color%3A%20transparent%3B%20font-variant-numeric%3A%20normal%3B%20font-variant-east-asian%3A%20normal%3B%20vertical-align%3A%20baseline%3B%26quot%3B%26gt%3BTransaction%26lt%3B%2Fspan%26gt%3B%26lt%3B%2Fspan%26gt%3B%22%20style%3D%22text%3BwhiteSpace%3Dwrap%3Bhtml%3D1%3BfontFamily%3DTimes%20New%20Roman%3BfontSize%3D16%3B%22%20vertex%3D%221%22%20parent%3D%221%22%3E%3CmxGeometry%20x%3D%2269.89%22%20y%3D%22-680%22%20width%3D%22100%22%20height%3D%2240%22%20as%3D%22geometry%22%2F%3E%3C%2FmxCell%3E%3C%2Froot%3E%3C%2FmxGraphModel%3E&lt;/span&gt;" style="text;whiteSpace=wrap;html=1;fontFamily=Times New Roman;fontSize=16;" vertex="1" parent="1">
          <mxGeometry x="69.89" y="-570" width="100" height="40" as="geometry" />
        </mxCell>
        <mxCell id="mEQ5S8OBxncR9a9ROYgm-112" value="&lt;span id=&quot;docs-internal-guid-a4861911-7fff-0861-a17a-e583005151e1&quot; style=&quot;font-size: 16px;&quot;&gt;&lt;span style=&quot;font-size: 16px; background-color: transparent; font-variant-numeric: normal; font-variant-east-asian: normal; vertical-align: baseline;&quot;&gt;TransWallet&lt;/span&gt;&lt;/span&gt;&lt;span style=&quot;color: rgba(0, 0, 0, 0); font-family: monospace; font-size: 0px;&quot;&gt;%3CmxGraphModel%3E%3Croot%3E%3CmxCell%20id%3D%220%22%2F%3E%3CmxCell%20id%3D%221%22%20parent%3D%220%22%2F%3E%3CmxCell%20id%3D%222%22%20value%3D%22%26lt%3Bspan%20id%3D%26quot%3Bdocs-internal-guid-a4861911-7fff-0861-a17a-e583005151e1%26quot%3B%20style%3D%26quot%3Bfont-size%3A%2016px%3B%26quot%3B%26gt%3B%26lt%3Bspan%20style%3D%26quot%3Bfont-size%3A%2016px%3B%20background-color%3A%20transparent%3B%20font-variant-numeric%3A%20normal%3B%20font-variant-east-asian%3A%20normal%3B%20vertical-align%3A%20baseline%3B%26quot%3B%26gt%3BTransaction%26lt%3B%2Fspan%26gt%3B%26lt%3B%2Fspan%26gt%3B%22%20style%3D%22text%3BwhiteSpace%3Dwrap%3Bhtml%3D1%3BfontFamily%3DTimes%20New%20Roman%3BfontSize%3D16%3B%22%20vertex%3D%221%22%20parent%3D%221%22%3E%3CmxGeometry%20x%3D%2269.89%22%20y%3D%22-680%22%20width%3D%22100%22%20height%3D%2240%22%20as%3D%22geometry%22%2F%3E%3C%2FmxCell%3E%3C%2Froot%3E%3C%2FmxGraphMode&lt;/span&gt;" style="text;whiteSpace=wrap;html=1;fontFamily=Times New Roman;fontSize=16;" vertex="1" parent="1">
          <mxGeometry x="69.89" y="-450" width="100" height="40" as="geometry" />
        </mxCell>
        <mxCell id="mEQ5S8OBxncR9a9ROYgm-113" value="TransLuckyWallet" style="text;whiteSpace=wrap;html=1;fontFamily=Times New Roman;fontSize=16;" vertex="1" parent="1">
          <mxGeometry x="69.89" y="-330" width="100" height="40" as="geometry" />
        </mxCell>
        <mxCell id="mEQ5S8OBxncR9a9ROYgm-115" value="" style="endArrow=none;dashed=1;html=1;dashPattern=1 3;strokeWidth=2;rounded=0;" edge="1" parent="1">
          <mxGeometry width="50" height="50" relative="1" as="geometry">
            <mxPoint x="930" y="-840" as="sourcePoint" />
            <mxPoint x="990" y="-840" as="targetPoint" />
          </mxGeometry>
        </mxCell>
        <mxCell id="mEQ5S8OBxncR9a9ROYgm-117" value="" style="endArrow=classic;html=1;rounded=0;fontFamily=Times New Roman;fontSize=16;entryX=0.106;entryY=1.055;entryDx=0;entryDy=0;entryPerimeter=0;" edge="1" parent="1" target="5ntVKc6Pq-QmaucN38MB-16">
          <mxGeometry width="50" height="50" relative="1" as="geometry">
            <mxPoint x="946" y="-870" as="sourcePoint" />
            <mxPoint x="1040" y="-420" as="targetPoint" />
            <Array as="points">
              <mxPoint x="946" y="-1130" />
              <mxPoint x="1950" y="-1130" />
              <mxPoint x="1950" y="-30" />
              <mxPoint x="1228" y="-30" />
            </Array>
          </mxGeometry>
        </mxCell>
        <mxCell id="mEQ5S8OBxncR9a9ROYgm-121" value="" style="endArrow=none;dashed=1;html=1;dashPattern=1 3;strokeWidth=2;rounded=0;" edge="1" parent="1">
          <mxGeometry width="50" height="50" relative="1" as="geometry">
            <mxPoint x="1689.9999999999998" y="-399.9999999999998" as="sourcePoint" />
            <mxPoint x="1749.9999999999998" y="-399.9999999999998" as="targetPoint" />
          </mxGeometry>
        </mxCell>
        <mxCell id="mEQ5S8OBxncR9a9ROYgm-123" value="" style="endArrow=classic;html=1;rounded=0;fontFamily=Times New Roman;fontSize=16;entryX=0.357;entryY=-0.008;entryDx=0;entryDy=0;entryPerimeter=0;" edge="1" parent="1">
          <mxGeometry width="50" height="50" relative="1" as="geometry">
            <mxPoint x="1250" y="-310" as="sourcePoint" />
            <mxPoint x="1489.8800000000006" y="-310.32000000000016" as="targetPoint" />
            <Array as="points">
              <mxPoint x="1250" y="-340" />
              <mxPoint x="1490" y="-340" />
            </Array>
          </mxGeometry>
        </mxCell>
        <mxCell id="mEQ5S8OBxncR9a9ROYgm-127" value="" style="endArrow=classic;html=1;rounded=0;fontFamily=Times New Roman;fontSize=16;" edge="1" parent="1">
          <mxGeometry width="50" height="50" relative="1" as="geometry">
            <mxPoint x="1250" y="-310" as="sourcePoint" />
            <mxPoint x="1370" y="-310" as="targetPoint" />
            <Array as="points">
              <mxPoint x="1250" y="-340" />
              <mxPoint x="1370" y="-340" />
            </Array>
          </mxGeometry>
        </mxCell>
        <mxCell id="mEQ5S8OBxncR9a9ROYgm-135" style="rounded=0;orthogonalLoop=1;jettySize=auto;html=1;entryX=0;entryY=1;entryDx=0;entryDy=0;entryPerimeter=0;fontFamily=Times New Roman;fontSize=16;exitX=0.502;exitY=1.079;exitDx=0;exitDy=0;exitPerimeter=0;" edge="1" parent="1" source="mEQ5S8OBxncR9a9ROYgm-129" target="mEQ5S8OBxncR9a9ROYgm-44">
          <mxGeometry relative="1" as="geometry">
            <Array as="points">
              <mxPoint x="261" y="-90" />
              <mxPoint x="1150" y="-100" />
              <mxPoint x="1150" y="-270" />
            </Array>
          </mxGeometry>
        </mxCell>
        <mxCell id="mEQ5S8OBxncR9a9ROYgm-128" value="" style="shape=table;startSize=0;container=1;collapsible=0;childLayout=tableLayout;fontFamily=Times New Roman;fontSize=16;" vertex="1" parent="1">
          <mxGeometry x="79.89" y="-160" width="360" height="40" as="geometry" />
        </mxCell>
        <mxCell id="mEQ5S8OBxncR9a9ROYgm-129" value="" style="shape=tableRow;horizontal=0;startSize=0;swimlaneHead=0;swimlaneBody=0;top=0;left=0;bottom=0;right=0;collapsible=0;dropTarget=0;fillColor=none;points=[[0,0.5],[1,0.5]];portConstraint=eastwest;fontFamily=Times New Roman;fontSize=16;" vertex="1" parent="mEQ5S8OBxncR9a9ROYgm-128">
          <mxGeometry width="360" height="40" as="geometry" />
        </mxCell>
        <mxCell id="mEQ5S8OBxncR9a9ROYgm-130" value="&lt;span style=&quot;font-weight: 700; text-decoration-line: underline;&quot;&gt;TransID&lt;/span&gt;" style="shape=partialRectangle;html=1;whiteSpace=wrap;connectable=0;overflow=hidden;fillColor=none;top=0;left=0;bottom=0;right=0;pointerEvents=1;fontFamily=Times New Roman;fontSize=16;" vertex="1" parent="mEQ5S8OBxncR9a9ROYgm-129">
          <mxGeometry width="120" height="40" as="geometry">
            <mxRectangle width="120" height="40" as="alternateBounds" />
          </mxGeometry>
        </mxCell>
        <mxCell id="mEQ5S8OBxncR9a9ROYgm-131" value="&lt;span style=&quot;font-size: 18.6667px;&quot;&gt;CooperateID&lt;/span&gt;" style="shape=partialRectangle;html=1;whiteSpace=wrap;connectable=0;overflow=hidden;fillColor=none;top=0;left=0;bottom=0;right=0;pointerEvents=1;fontFamily=Times New Roman;fontSize=16;fontStyle=5" vertex="1" parent="mEQ5S8OBxncR9a9ROYgm-129">
          <mxGeometry x="120" width="120" height="40" as="geometry">
            <mxRectangle width="120" height="40" as="alternateBounds" />
          </mxGeometry>
        </mxCell>
        <mxCell id="mEQ5S8OBxncR9a9ROYgm-132" value="Total Comission" style="shape=partialRectangle;html=1;whiteSpace=wrap;connectable=0;overflow=hidden;fillColor=none;top=0;left=0;bottom=0;right=0;pointerEvents=1;fontFamily=Times New Roman;fontSize=16;" vertex="1" parent="mEQ5S8OBxncR9a9ROYgm-129">
          <mxGeometry x="240" width="120" height="40" as="geometry">
            <mxRectangle width="120" height="40" as="alternateBounds" />
          </mxGeometry>
        </mxCell>
        <mxCell id="mEQ5S8OBxncR9a9ROYgm-133" style="edgeStyle=none;rounded=0;orthogonalLoop=1;jettySize=auto;html=1;exitX=0;exitY=0.5;exitDx=0;exitDy=0;entryX=0;entryY=0.184;entryDx=0;entryDy=0;entryPerimeter=0;fontFamily=Times New Roman;fontSize=16;" edge="1" parent="1" source="mEQ5S8OBxncR9a9ROYgm-129" target="mEQ5S8OBxncR9a9ROYgm-2">
          <mxGeometry relative="1" as="geometry">
            <Array as="points">
              <mxPoint x="10" y="-140" />
              <mxPoint x="10" y="-633" />
            </Array>
          </mxGeometry>
        </mxCell>
        <mxCell id="mEQ5S8OBxncR9a9ROYgm-144" value="" style="endArrow=classic;html=1;rounded=0;fontFamily=Times New Roman;fontSize=16;edgeStyle=orthogonalEdgeStyle;entryX=0.533;entryY=-0.023;entryDx=0;entryDy=0;entryPerimeter=0;" edge="1" parent="1" target="Ft31pjSwO6Qs9RVCdsp_-36">
          <mxGeometry width="50" height="50" relative="1" as="geometry">
            <mxPoint x="1269.93" y="-210" as="sourcePoint" />
            <mxPoint x="1603.6049999999998" y="-210.27999999999997" as="targetPoint" />
            <Array as="points">
              <mxPoint x="1270" y="-240" />
              <mxPoint x="1382" y="-240" />
            </Array>
          </mxGeometry>
        </mxCell>
        <mxCell id="mEQ5S8OBxncR9a9ROYgm-145" value="" style="endArrow=classic;html=1;rounded=0;fontFamily=Times New Roman;fontSize=16;edgeStyle=orthogonalEdgeStyle;entryX=0.222;entryY=1.063;entryDx=0;entryDy=0;entryPerimeter=0;" edge="1" parent="1" target="mEQ5S8OBxncR9a9ROYgm-44">
          <mxGeometry width="50" height="50" relative="1" as="geometry">
            <mxPoint x="1470" y="-210" as="sourcePoint" />
            <mxPoint x="1803.6749999999997" y="-210.27999999999997" as="targetPoint" />
            <Array as="points">
              <mxPoint x="1470" y="-250" />
              <mxPoint x="1270" y="-250" />
            </Array>
          </mxGeometry>
        </mxCell>
        <mxCell id="mEQ5S8OBxncR9a9ROYgm-146" value="" style="endArrow=classic;html=1;rounded=0;fontFamily=Times New Roman;fontSize=16;edgeStyle=orthogonalEdgeStyle;exitX=0.893;exitY=1.103;exitDx=0;exitDy=0;exitPerimeter=0;entryX=0.053;entryY=-0.057;entryDx=0;entryDy=0;entryPerimeter=0;" edge="1" parent="1" source="mEQ5S8OBxncR9a9ROYgm-30" target="mEQ5S8OBxncR9a9ROYgm-44">
          <mxGeometry width="50" height="50" relative="1" as="geometry">
            <mxPoint x="1373.09" y="-340" as="sourcePoint" />
            <mxPoint x="1280" y="-310" as="targetPoint" />
            <Array as="points">
              <mxPoint x="1716" y="-370" />
              <mxPoint x="1209" y="-370" />
            </Array>
          </mxGeometry>
        </mxCell>
        <mxCell id="mEQ5S8OBxncR9a9ROYgm-148" value="" style="endArrow=none;dashed=1;html=1;dashPattern=1 3;strokeWidth=2;rounded=0;" edge="1" parent="1">
          <mxGeometry width="50" height="50" relative="1" as="geometry">
            <mxPoint x="1576.5" y="-180" as="sourcePoint" />
            <mxPoint x="1636.5" y="-180" as="targetPoint" />
          </mxGeometry>
        </mxCell>
        <mxCell id="mEQ5S8OBxncR9a9ROYgm-152" value="" style="endArrow=classic;html=1;rounded=0;fontFamily=Times New Roman;fontSize=16;entryX=0.357;entryY=-0.008;entryDx=0;entryDy=0;entryPerimeter=0;" edge="1" parent="1">
          <mxGeometry width="50" height="50" relative="1" as="geometry">
            <mxPoint x="140.00000000000023" y="-530" as="sourcePoint" />
            <mxPoint x="379.88000000000034" y="-530.3200000000002" as="targetPoint" />
            <Array as="points">
              <mxPoint x="140" y="-560" />
              <mxPoint x="380" y="-560" />
            </Array>
          </mxGeometry>
        </mxCell>
        <mxCell id="mEQ5S8OBxncR9a9ROYgm-154" value="" style="endArrow=none;html=1;rounded=0;fontFamily=Times New Roman;fontSize=16;exitX=0.502;exitY=-0.003;exitDx=0;exitDy=0;exitPerimeter=0;" edge="1" parent="1" source="mEQ5S8OBxncR9a9ROYgm-78">
          <mxGeometry width="50" height="50" relative="1" as="geometry">
            <mxPoint x="960" y="-610" as="sourcePoint" />
            <mxPoint x="250" y="-560" as="targetPoint" />
          </mxGeometry>
        </mxCell>
        <mxCell id="mEQ5S8OBxncR9a9ROYgm-155" value="" style="endArrow=classic;html=1;rounded=0;fontFamily=Times New Roman;fontSize=16;entryX=0.357;entryY=-0.008;entryDx=0;entryDy=0;entryPerimeter=0;" edge="1" parent="1">
          <mxGeometry width="50" height="50" relative="1" as="geometry">
            <mxPoint x="139.8900000000002" y="-530" as="sourcePoint" />
            <mxPoint x="379.7700000000003" y="-530.3200000000002" as="targetPoint" />
            <Array as="points">
              <mxPoint x="139.89" y="-560" />
              <mxPoint x="379.89" y="-560" />
            </Array>
          </mxGeometry>
        </mxCell>
        <mxCell id="mEQ5S8OBxncR9a9ROYgm-156" value="" style="endArrow=none;html=1;rounded=0;fontFamily=Times New Roman;fontSize=16;exitX=0.502;exitY=-0.003;exitDx=0;exitDy=0;exitPerimeter=0;" edge="1" parent="1">
          <mxGeometry width="50" height="50" relative="1" as="geometry">
            <mxPoint x="250.5000000000001" y="-530.1199999999999" as="sourcePoint" />
            <mxPoint x="249.89" y="-560" as="targetPoint" />
          </mxGeometry>
        </mxCell>
        <mxCell id="mEQ5S8OBxncR9a9ROYgm-157" value="" style="endArrow=classic;html=1;rounded=0;fontFamily=Times New Roman;fontSize=16;entryX=0.357;entryY=-0.008;entryDx=0;entryDy=0;entryPerimeter=0;" edge="1" parent="1">
          <mxGeometry width="50" height="50" relative="1" as="geometry">
            <mxPoint x="129.8900000000002" y="-410" as="sourcePoint" />
            <mxPoint x="369.77000000000044" y="-410.32000000000016" as="targetPoint" />
            <Array as="points">
              <mxPoint x="129.89" y="-440" />
              <mxPoint x="369.89" y="-440" />
            </Array>
          </mxGeometry>
        </mxCell>
        <mxCell id="mEQ5S8OBxncR9a9ROYgm-158" value="" style="endArrow=none;html=1;rounded=0;fontFamily=Times New Roman;fontSize=16;exitX=0.502;exitY=-0.003;exitDx=0;exitDy=0;exitPerimeter=0;" edge="1" parent="1">
          <mxGeometry width="50" height="50" relative="1" as="geometry">
            <mxPoint x="240.5000000000001" y="-410.1199999999999" as="sourcePoint" />
            <mxPoint x="239.8900000000001" y="-440" as="targetPoint" />
          </mxGeometry>
        </mxCell>
        <mxCell id="mEQ5S8OBxncR9a9ROYgm-159" value="" style="endArrow=classic;html=1;rounded=0;fontFamily=Times New Roman;fontSize=16;entryX=0.357;entryY=-0.008;entryDx=0;entryDy=0;entryPerimeter=0;" edge="1" parent="1">
          <mxGeometry width="50" height="50" relative="1" as="geometry">
            <mxPoint x="129.8900000000002" y="-290" as="sourcePoint" />
            <mxPoint x="369.77000000000044" y="-290.32000000000016" as="targetPoint" />
            <Array as="points">
              <mxPoint x="129.89" y="-320" />
              <mxPoint x="369.89" y="-320" />
            </Array>
          </mxGeometry>
        </mxCell>
        <mxCell id="mEQ5S8OBxncR9a9ROYgm-160" value="" style="endArrow=none;html=1;rounded=0;fontFamily=Times New Roman;fontSize=16;exitX=0.502;exitY=-0.003;exitDx=0;exitDy=0;exitPerimeter=0;" edge="1" parent="1">
          <mxGeometry width="50" height="50" relative="1" as="geometry">
            <mxPoint x="240.5000000000001" y="-290.1199999999999" as="sourcePoint" />
            <mxPoint x="239.8900000000001" y="-320" as="targetPoint" />
          </mxGeometry>
        </mxCell>
        <mxCell id="mEQ5S8OBxncR9a9ROYgm-161" value="" style="endArrow=classic;html=1;rounded=0;fontFamily=Times New Roman;fontSize=16;entryX=0.357;entryY=-0.008;entryDx=0;entryDy=0;entryPerimeter=0;" edge="1" parent="1">
          <mxGeometry width="50" height="50" relative="1" as="geometry">
            <mxPoint x="129.8900000000002" y="-160" as="sourcePoint" />
            <mxPoint x="369.77000000000044" y="-160.32000000000016" as="targetPoint" />
            <Array as="points">
              <mxPoint x="129.89" y="-190" />
              <mxPoint x="369.89" y="-190" />
            </Array>
          </mxGeometry>
        </mxCell>
        <mxCell id="mEQ5S8OBxncR9a9ROYgm-162" value="" style="endArrow=none;html=1;rounded=0;fontFamily=Times New Roman;fontSize=16;exitX=0.502;exitY=-0.003;exitDx=0;exitDy=0;exitPerimeter=0;" edge="1" parent="1">
          <mxGeometry width="50" height="50" relative="1" as="geometry">
            <mxPoint x="240.5000000000001" y="-160.1199999999999" as="sourcePoint" />
            <mxPoint x="239.8900000000001" y="-190" as="targetPoint" />
          </mxGeometry>
        </mxCell>
      </root>
    </mxGraphModel>
  </diagram>
</mxfile>
